<?xml version="1.0" encoding="UTF-8" standalone="no"?>
<!-- Created with Inkscape (http://www.inkscape.org/) -->

<svg
   width="161.86922mm"
   height="239.34332mm"
   viewBox="0 0 161.86922 239.34332"
   version="1.1"
   id="svg5"
   xml:space="preserve"
   inkscape:version="1.2.2 (732a01da63, 2022-12-09)"
   sodipodi:docname="frontHeadV1.1.svg"
   xmlns:inkscape="http://www.inkscape.org/namespaces/inkscape"
   xmlns:sodipodi="http://sodipodi.sourceforge.net/DTD/sodipodi-0.dtd"
   xmlns="http://www.w3.org/2000/svg"
   xmlns:svg="http://www.w3.org/2000/svg"><sodipodi:namedview
     id="namedview7"
     pagecolor="#ffffff"
     bordercolor="#999999"
     borderopacity="1"
     inkscape:showpageshadow="0"
     inkscape:pageopacity="0"
     inkscape:pagecheckerboard="0"
     inkscape:deskcolor="#d1d1d1"
     inkscape:document-units="mm"
     showgrid="false"
     inkscape:zoom="1.5004889"
     inkscape:cx="451.18628"
     inkscape:cy="544.82242"
     inkscape:window-width="3840"
     inkscape:window-height="2054"
     inkscape:window-x="-11"
     inkscape:window-y="-11"
     inkscape:window-maximized="1"
     inkscape:current-layer="layer1"
     showguides="true" /><defs
     id="defs2"><inkscape:path-effect
       effect="spiro"
       id="path-effect3596"
       is_visible="true"
       lpeversion="1" /><inkscape:path-effect
       effect="spiro"
       id="path-effect3596-2"
       is_visible="true"
       lpeversion="1" /></defs><g
     inkscape:label="Layer 1"
     inkscape:groupmode="layer"
     id="layer1"
     style="display:inline"
     transform="translate(-24.724076,-9.1681764)"><path
       style="display:inline;opacity:1;fill:#552200;stroke:#000000;stroke-width:0.264583"
       d="m 89.664523,88.430202 c 2.685108,4.167829 2.938856,8.522685 4.408284,12.784028 L 83.933751,97.511271 69.298245,96.894109 53.340251,97.158608 61.36333,94.072807 Z"
       id="rightEyebrow"
       sodipodi:nodetypes="ccccccc" /><path
       style="display:inline;opacity:1;fill:#ffe6d5;fill-opacity:1;fill-rule:evenodd;stroke:#000000;stroke-width:0.264583;stroke-linejoin:bevel;stroke-dasharray:3.175, 0.264583;stroke-dashoffset:0;stroke-opacity:1"
       d="m 42.517631,148.5 c 0,0 38.56524,61.97476 63.605479,61.86337 25.04024,-0.11139 62.872,-61.86337 62.872,-61.86337 l -1.60532,7.54345 -2.4937,14.30762 -1.80793,12.96725 -1.71442,5.04975 -2.68073,4.23929 -3.53452,3.68867 -4.32065,4.50938 -1.76735,1.84423 -6.088,6.35362 -7.85497,6.20329 -7.01286,4.80431 -3.2425,1.804 -7.10054,3.04842 -5.18108,0.97255 -5.48601,0.46769 -4.55833,0.24803 -4.450168,-1.08965 -5.735519,-1.83911 -5.735312,-1.83891 -9.133292,-5.20589 -13.933516,-12.09435 -6.836791,-7.66671 -4.509701,-5.30056 -2.400189,-3.70938 -2.088475,-4.86273 -4.519838,-25.87216 z"
       id="path4252"
       sodipodi:nodetypes="czcccccccccccccccccccccccccccc"
       inkscape:label="jaw" /><path
       style="display:inline;opacity:1;fill:#552200;stroke:#000000;stroke-width:0.264583"
       d="m 121.4001,87.823487 -4.40829,12.784023 10.13906,-3.702954 14.63551,-0.617162 15.95799,0.264499 -8.02308,-3.085801 z"
       id="leftEyebrow" /><path
       style="display:inline;opacity:1;fill:#ffe6d5;fill-opacity:1;fill-rule:evenodd;stroke:#000000;stroke-width:0.264583;stroke-dasharray:3.175, 0.264583;stroke-dashoffset:0;stroke-opacity:1"
       d="m 61.01067,134.23229 c 0,0 -6.751247,12.54757 -2.034601,19.3798 4.716646,6.83223 29.324932,7.73048 29.324932,7.73048 l 2.157013,-8.90406 c 0,0 -1.843088,-2.58099 -1.99003,-3.95436 -0.146943,-1.37337 1.108375,-4.28588 1.108375,-4.28588 l -4.893197,-4.72012 -23.672492,-5.24586"
       id="rightInfraorbital"
       sodipodi:nodetypes="czcczccc" /><path
       style="display:inline;opacity:1;fill:#ffe6d5;fill-opacity:1;fill-rule:evenodd;stroke:#000000;stroke-width:0.264583;stroke-opacity:1"
       d="m 37.561398,105.14074 c -0.638879,-0.91121 -1.562174,-1.61995 -2.607556,-2.0016 -1.045381,-0.38164 -2.208131,-0.43448 -3.283818,-0.14922 -1.493727,0.39612 -2.769261,1.42082 -3.68243,2.66752 -0.913168,1.2467 -1.492253,2.70764 -1.928401,4.19017 -2.378284,8.08416 -0.693094,16.71968 0.49874,25.06171 0.530812,3.71533 0.962399,7.45538 1.870278,11.09697 0.703633,2.82234 1.729723,5.64086 3.615868,7.85517 0.941349,1.10513 2.11369,2.05075 3.487711,2.51927 1.374021,0.46853 2.939306,0.4144 4.230063,-0.24998 1.290758,-0.66438 2.238676,-1.91369 2.641839,-3.30829 0.403164,-1.3946 0.278805,-2.88014 0.113939,-4.32246 l -4.956233,-43.35926"
       id="rightEar"
       inkscape:path-effect="#path-effect3596"
       inkscape:original-d="m 37.561398,105.14074 c -1.963526,-0.71668 -3.927319,-1.43362 -5.891374,-2.15082 -1.964055,-0.7172 -3.74029,4.57206 -5.610831,6.85769 -1.870541,2.28563 0.332759,16.70807 0.49874,25.06171 0.165983,8.35364 1.247116,7.39825 1.870278,11.09697 0.62316,3.69873 2.410844,5.23705 3.615868,7.85517 1.205026,2.61812 10.91895,-1.46492 10.473552,-5.36146 l -4.956233,-43.35926"
       sodipodi:nodetypes="cssssssc" /><path
       id="neck"
       style="display:inline;opacity:1;fill:#ffe6d5;fill-opacity:1;fill-rule:evenodd;stroke:#000000;stroke-width:0.264583;stroke-opacity:1"
       d="m 155.15849,196.29603 -12.176,12.70723 -7.85497,6.20329 -7.01286,4.80431 -3.2425,1.804 -7.10054,3.04842 -5.18108,0.97255 -5.48597,0.46767 c 0,0 -1.82697,0.13027 -4.55837,0.24805 -2.18225,-0.53152 -2.993703,-0.62277 -4.450379,-1.08986 l -11.470618,-3.67781 -9.133292,-5.20589 -13.933517,-12.09435 -6.836792,-7.66671 c 0.03213,1.98658 0.15884,3.9719 0.379822,5.9464 1.659361,6.71539 1.398767,13.10497 1.403662,19.31252 0.03226,4.07837 -1.032231,8.18013 -3.191536,11.64012 13.925879,7.77411 31.435545,12.66742 47.30241,14.28285 1.47283,0.14995 2.94864,0.27175 4.42609,0.36587 v 0.008 c 0.0208,-0.001 0.0417,-0.003 0.0625,-0.004 0.0208,0.001 0.0417,0.003 0.0625,0.004 v -0.008 c 1.47745,-0.0941 2.95326,-0.21592 4.42609,-0.36587 15.86686,-1.61543 31.3928,-6.50874 45.31868,-14.28285 -2.49216,-2.86989 -1.52571,-6.09141 -2.07288,-9.85276 -0.2501,-6.51561 -1.56687,-13.21911 -0.67682,-19.02713 0.15037,-0.86765 0.30071,-1.7354 0.45165,-2.60295 z"
       sodipodi:nodetypes="cccccccccccccccccscccccsccccc"
       inkscape:label="neck" /><path
       style="display:inline;opacity:1;fill:#ffe6d5;fill-opacity:1;fill-rule:evenodd;stroke:#000000;stroke-width:0.264583;stroke-dasharray:3.175, 0.264583;stroke-dashoffset:0;stroke-opacity:1"
       d="m 36.087865,43.730066 c 10.528214,-2.814294 17.26373,-4.566118 23.314471,-6.050293 3.8372,-0.94122 7.254816,-1.909749 11.907371,-2.588974 3.18795,-0.465408 8.532404,-1.391275 13.697445,-1.737553 9.959583,-0.667716 20.149328,-0.544368 20.149328,-0.544368 0,0 0.26068,-11.457202 -0.15648,-23.505546 0,0 -56.130423,0.975823 -68.912135,34.426734 z"
       id="rightParietal"
       sodipodi:nodetypes="cssscsc" /><path
       style="display:inline;opacity:1;fill:#ffe6d5;fill-opacity:1;fill-rule:evenodd;stroke:#000000;stroke-width:0.264583;stroke-dasharray:3.175, 0.264583;stroke-dashoffset:0;stroke-opacity:1"
       d="m 173.53185,42.964466 c -10.03543,-3.083819 -15.29768,-4.79323 -21.34842,-6.277405 -3.8372,-0.94122 -7.96117,-2.033381 -12.61372,-2.712606 -3.18795,-0.465408 -8.94379,-1.174735 -14.11938,-1.278442 -10.17778,-0.20394 -20.29385,0.112865 -20.29385,0.112865 0,0 0.21274,-11.254589 -0.15648,-23.505546 0,0 55.31374,-0.9742858 68.53185,33.661134 z"
       id="rightParietal-3"
       sodipodi:nodetypes="cssscsc"
       inkscape:label="leftParietal" /><path
       style="display:inline;opacity:1;fill:#ffe6d5;fill-opacity:1;fill-rule:evenodd;stroke:#000000;stroke-width:0.286123;stroke-dasharray:3.43348, 0.286123;stroke-dashoffset:0;stroke-opacity:1"
       d="m 33.068612,63.774423 c 0,0 47.390764,22.383284 72.297018,22.499178 24.90625,0.115895 72.49857,-22.398517 72.49857,-22.398517 0,0 -0.22635,-4.993811 -1.11889,-10.282268 -0.78732,-4.665003 -2.92287,-9.425067 -3.21346,-10.62835 C 137.274,31.46078 132.30076,32.485604 105.15648,32.808878 77.773967,33.134989 75.215083,33.248274 36.087865,43.730066 c 0,0 -1.586316,2.205043 -2.522103,8.518353 -0.935787,6.31331 -0.49715,11.526004 -0.49715,11.526004 z"
       id="frontal"
       sodipodi:nodetypes="cccscsczc" /><path
       style="display:inline;opacity:1;fill:#ffe6d5;fill-opacity:1;fill-rule:evenodd;stroke:#000000;stroke-width:0.241471;stroke-dasharray:2.89765, 0.241471;stroke-dashoffset:0;stroke-opacity:1"
       d="m 33.068613,63.774423 c 0,0 12.969943,19.194231 14.081004,30.474715 1.075352,10.917922 -7.049612,33.100432 -7.049612,33.100432 l -2.222484,-19.44325 -0.316123,-2.76558 -1.768408,-8.839718 -0.84998,-4.03402 -0.997482,-9.133187 -0.815105,-15.346891 -0.06181,-4.012501"
       id="rightTemporal"
       sodipodi:nodetypes="cscccccccc" /><path
       style="display:inline;opacity:1;fill:#ffe6d5;fill-opacity:1;fill-rule:evenodd;stroke:#000000;stroke-width:0.250113;stroke-dasharray:3.00136, 0.250113;stroke-dashoffset:0;stroke-opacity:1"
       d="m 177.8642,63.875084 c 0,0 -12.61428,19.27458 -13.69972,30.886533 -1.08544,11.611953 8.05144,36.375973 8.05144,36.375973 l 1.06525,-7.66813 1.30919,-14.52582 3.12362,-22.138992 0.16791,-4.809569 -0.0473,-12.045618 0.0296,-6.074377"
       id="leftTemporal"
       sodipodi:nodetypes="czccccccc" /><path
       style="display:inline;opacity:1;fill:#ffe6d5;fill-rule:nonzero;stroke:#ffe6d5;stroke-width:1.08094;stroke-linecap:butt;stroke-linejoin:miter;stroke-dasharray:none;stroke-dashoffset:0;stroke-opacity:1;paint-order:normal"
       d="m 340.80489,573.34082 c -3.60438,-6.31628 -5.8633,-10.4306 -5.8633,-13.14538 0,-2.40538 1.13056,-6.87664 3.00765,-11.89499 0.95595,-2.55571 1.27837,-3.11333 3.35411,-5.80091 l 2.2965,-2.97341 6.14374,-21.41383 6.14373,-21.41383 2.47772,-19.08566 2.47772,-19.08566 0.14376,-19.32129 0.14376,-19.32129 -2.37338,-17.89284 c -1.30536,-9.84107 -2.37339,-18.15141 -2.37339,-18.46741 0,-0.31601 -0.52095,-2.18353 -1.15767,-4.15004 -0.63673,-1.96651 -1.9696,-6.80407 -2.96195,-10.75014 -4.01494,-15.96537 -5.8437,-21.55326 -9.36538,-28.6166 -0.64613,-1.29594 -1.70971,-3.40966 -2.16326,-4.16243 -0.45355,-0.75276 -0.76697,-1.42632 -0.6965,-1.49679 0.1423,-0.1423 2.18908,-0.1857 69.90354,-1.48224 26.24278,-0.50248 47.74433,-0.88365 47.78121,-0.84705 0.0369,0.0366 -3.49551,11.30677 -8.04999,24.51007 -4.90669,14.22436 -8.31531,24.45511 -8.36539,25.10818 -0.0465,0.60618 -1.14044,9.14172 -2.43102,18.96785 l -2.3465,17.86569 0.20627,19.32129 0.20628,19.32129 2.4808,18.7899 2.4808,18.7899 6.03413,21.02496 c 3.31877,11.56373 6.15755,21.24698 6.30839,21.51832 0.73529,1.32272 4.74561,6.24098 5.00705,6.14065 0.34332,-0.13174 0.27401,-0.29165 1.77086,4.08543 1.30839,3.82599 2.09667,7.32843 2.09667,9.31588 0,2.58222 -1.9917,7.27939 -5.62323,12.76515 0,0 -0.95096,1.75613 -1.92923,3.55814 -0.28993,0.53407 -0.61444,1.05597 -0.85295,1.56979 -2.80847,6.05033 -107.08478,9.85331 -112.28925,1.5122 -5.20447,-8.34111 -1.6223,-2.8429 -1.6223,-2.8429 z"
       id="sinus"
       sodipodi:nodetypes="sssscccccccsssssssssssscccccsssssssszs"
       transform="scale(0.26458333)" /><path
       style="display:inline;opacity:1;fill:#000000;fill-rule:nonzero;stroke:#000000;stroke-width:0.285999;stroke-linecap:butt;stroke-linejoin:miter;stroke-dasharray:none;stroke-dashoffset:0;stroke-opacity:1;paint-order:normal"
       d="m 105.57714,94.858344 0.39545,44.972466"
       id="noseBridge" /><path
       style="display:inline;opacity:1;fill:#ffe6d5;fill-rule:nonzero;stroke:#000000;stroke-width:1.00157;stroke-linecap:butt;stroke-linejoin:miter;stroke-dasharray:12.0189, 1.00157;stroke-dashoffset:0;stroke-opacity:1;paint-order:normal"
       d="m 458.84582,542.01255 c -0.70907,-0.73688 -1.91487,-2.18659 -2.67956,-3.2216 -1.60834,-2.17688 -0.91263,-0.0103 -8.86321,-27.60151 l -4.71884,-16.37597 -2.47668,-18.4966 -2.47668,-18.4966 -0.23405,-19.67472 -0.23405,-19.67473 1.42873,-10.83877 c 0.7858,-5.96132 1.85935,-14.23178 2.38567,-18.37879 0.52632,-4.147 1.01012,-7.7167 1.07511,-7.93266 0.065,-0.21596 0.40543,-0.49529 0.75652,-0.62073 0.35109,-0.12544 9.06784,-3.30161 19.37056,-7.05815 l 18.73223,-6.83008 12.72377,-0.51398 c 6.99808,-0.28268 18.8736,-0.78316 26.39006,-1.11218 11.94828,-0.523 15.12465,-0.58105 25.26735,-0.46176 16.57944,0.19499 40.60274,0.58868 46.17507,0.7567 l 4.76042,0.14354 -0.13778,0.74026 c -0.93049,4.99921 -10.01967,49.31939 -20.93029,102.0592 -3.96787,19.17991 -7.16833,35.08463 -7.11214,35.34382 0.0562,0.25919 0.17339,0.63913 0.26043,0.84432 0.096,0.22625 0.0383,0.38262 -0.14642,0.39732 -0.69259,0.0551 -5.02331,1.34595 -5.09622,1.51901 -0.0435,0.10318 -0.17965,0.12541 -0.30264,0.0494 -0.20171,-0.12466 -4.53027,0.68416 -5.39115,1.00738 -0.19439,0.073 -0.59734,0.16503 -0.89544,0.20455 -1.52889,0.20266 -5.46645,1.14737 -5.46645,1.31153 0,0.10389 -0.14578,0.13295 -0.32396,0.0646 -0.28913,-0.11095 -3.588,0.55036 -5.44886,1.09231 -0.38878,0.11323 -1.76719,0.42883 -3.06313,0.70134 -1.29594,0.27251 -2.5153,0.55589 -2.70969,0.62975 -0.19439,0.0738 -0.59735,0.16661 -0.89545,0.20612 -1.52889,0.20266 -5.46644,1.14738 -5.46644,1.31153 0,0.1039 -0.14236,0.13427 -0.31636,0.0675 -0.174,-0.0668 -1.47289,0.14949 -2.88642,0.48058 -1.41352,0.33108 -2.83512,0.64683 -3.15911,0.70165 -1.09018,0.18448 -5.06261,1.08504 -5.41938,1.2286 -0.1944,0.0782 -0.56551,0.16285 -0.82469,0.18807 -1.11229,0.10822 -5.30158,1.16618 -5.30158,1.33885 0,0.10411 -0.13534,0.13735 -0.30075,0.0739 -0.16542,-0.0635 -1.46431,0.15541 -2.88642,0.48642 -1.42211,0.33101 -2.85073,0.64406 -3.17471,0.69567 -0.97374,0.15511 -5.03976,1.07022 -5.41939,1.2197 -0.19439,0.0765 -0.68457,0.17364 -1.08928,0.21578 -0.40471,0.0421 -1.83614,0.33913 -3.18095,0.65999 -2.51333,0.59966 -7.91121,1.8504 -8.34195,1.93291 -2.61226,0.5004 -5.43108,1.18305 -5.4922,1.33008 -0.0435,0.10456 -0.16064,0.13966 -0.26038,0.078 -0.39989,-0.24714 -5.31002,0.56411 -5.57051,0.92037 -0.14462,0.19777 -0.31499,0.30752 -0.37862,0.24389 -0.34836,-0.34835 -3.35379,2.27457 -10.67048,9.31241 -1.68412,1.61992 -3.9914,3.83926 -5.12731,4.93187 -1.1359,1.0926 -2.06528,2.13266 -2.06528,2.31125 0,0.17859 -0.09,0.26905 -0.20011,0.20103 -0.19172,-0.11849 -0.60049,0.52858 -0.80481,1.27399 -0.0675,0.24627 -0.48779,-0.0528 -1.3861,-0.98633 z"
       id="leftOrbital"
       transform="scale(0.26458333)" /><path
       style="display:inline;opacity:1;fill:#ffe6d5;fill-rule:nonzero;stroke:#ffe6d5;stroke-width:0.471993;stroke-linecap:butt;stroke-linejoin:miter;stroke-dasharray:5.66392, 0.471993;stroke-dashoffset:0;stroke-opacity:1;paint-order:normal"
       d="m 394.2014,794.32124 c 0,-0.27446 -0.47714,-0.5024 -1.06032,-0.50646 -0.58317,-0.005 -3.07491,-0.44637 -5.53719,-0.98293 -2.46229,-0.53657 -4.79498,-1.0254 -5.18376,-1.08628 -0.38879,-0.0608 -1.02498,-0.24788 -1.41376,-0.4156 -0.93208,-0.40207 -9.99711,-3.66209 -10.60314,-3.81312 -0.25919,-0.0646 -3.06902,-1.43082 -6.24408,-3.03599 -3.17505,-1.60513 -5.77607,-2.75776 -5.78004,-2.56139 -0.004,0.19637 -0.16301,0.13143 -0.35343,-0.14435 -0.48929,-0.70862 -10.11878,-6.46956 -10.83156,-6.48007 -0.32399,-0.005 -0.58907,-0.15297 -0.58907,-0.32927 0,-0.17634 -2.27967,-1.88491 -5.06594,-3.79687 -5.89053,-4.04215 -14.57024,-10.65969 -20.61723,-15.71885 -2.33269,-1.95164 -4.50634,-3.55309 -4.83032,-3.55884 -0.32399,-0.006 -0.53605,-0.17352 -0.47125,-0.37286 0.16935,-0.52111 -8.89133,-8.61446 -9.24647,-8.25933 -0.163,0.16301 -0.29636,0.0743 -0.29636,-0.19722 0,-0.64142 -7.86423,-8.33633 -8.71608,-8.52841 -0.35805,-0.0807 -0.71705,-0.40712 -0.79778,-0.72526 -0.0807,-0.31819 -2.2031,-2.53179 -4.71637,-4.91915 -2.51327,-2.38741 -4.43356,-4.34069 -4.26733,-4.34069 0.16624,0 -2.02374,-2.38571 -4.86664,-5.30158 -9.41411,-9.65576 -19.16916,-20.57025 -31.69454,-35.46163 -3.27011,-3.88782 -6.1628,-7.31722 -6.4282,-7.62089 -0.26541,-0.30367 -2.07303,-2.57254 -4.01694,-5.04193 -1.94391,-2.46939 -3.79946,-4.50061 -4.12345,-4.51382 -0.32398,-0.0132 -0.53605,-0.22374 -0.47125,-0.46785 0.15182,-0.57193 -7.08534,-9.92369 -7.67977,-9.92369 -0.24712,0 -0.39629,-0.16476 -0.3315,-0.36613 0.0648,-0.20137 -3.03211,-4.49565 -6.88203,-9.54283 -10.36184,-13.58423 -15.65047,-20.72675 -20.33271,-27.46022 -1.55512,-2.23641 -3.1051,-4.07401 -3.44438,-4.08355 -0.33928,-0.01 -0.5021,-0.20305 -0.36183,-0.43002 0.14028,-0.22697 -1.3933,-2.71871 -3.40794,-5.5372 -2.01464,-2.81849 -5.21237,-7.4042 -7.10606,-10.19047 -1.8937,-2.78627 -3.63459,-5.06595 -3.86864,-5.06595 -0.23406,0 -0.42556,-0.2667 -0.42556,-0.59266 0,-0.8695 -6.05373,-9.77661 -6.85319,-10.08339 -0.37477,-0.14382 -0.58344,-0.42 -0.4637,-0.61374 0.27296,-0.44167 -6.16591,-10.38775 -6.7248,-10.38775 -0.2255,0 -0.41182,-0.26508 -0.41404,-0.58907 -0.002,-0.32398 -1.41143,-2.76084 -3.13158,-5.41525 l -3.12754,-4.82619 -4.54313,-39.70288 -4.54312,-39.70288 1.0525,-3.26792 c 0.57888,-1.79736 1.10228,-3.49573 1.1631,-3.77416 0.0608,-0.27842 0.24787,-0.82431 0.41565,-1.2131 0.85186,-1.97391 3.50963,-10.36752 3.2828,-10.36752 -0.14418,0 -0.045,-0.26508 0.22052,-0.58906 0.76354,-0.93185 3.50251,-10.17828 3.17296,-10.7115 -0.1634,-0.26439 -0.1,-0.48071 0.1409,-0.48071 0.57384,0 3.55007,-10.19469 3.16034,-10.82531 -0.16477,-0.26659 -0.10394,-0.48471 0.13516,-0.48471 0.4242,0 2.87745,-7.95496 3.1016,-10.05729 0.062,-0.58134 0.24349,-1.26862 0.40335,-1.52728 0.60344,-0.97639 2.75282,-10.25315 2.51762,-10.86608 -0.13521,-0.35235 -0.074,-0.64065 0.13607,-0.64065 0.32417,0 1.96513,-6.52729 2.60639,-10.36752 0.1082,-0.64797 0.31819,-1.49622 0.46666,-1.885 0.45317,-1.18669 3.6222,-20.43496 3.5302,-21.44192 -0.0474,-0.51837 0.0708,-1.30484 0.26252,-1.7477 0.19175,-0.44287 0.38233,-3.14473 0.42351,-6.00415 0.0412,-2.85941 0.23392,-5.20087 0.42831,-5.20324 0.19439,-0.002 0.35344,-2.54906 0.35344,-5.65932 0,-3.11026 -0.16465,-5.65501 -0.3659,-5.65501 -0.20123,0 -0.29102,-0.79524 -0.19952,-1.76719 0.0915,-0.97196 -0.17705,-3.56973 -0.59677,-5.77283 -0.41973,-2.20309 -0.94518,-4.95991 -1.16768,-6.12626 -0.63357,-3.3212 -2.53527,-9.64382 -2.95324,-9.8187 -0.20778,-0.0869 -0.26967,-0.33299 -0.13754,-0.54678 0.22377,-0.36206 -1.91187,-6.9397 -3.2903,-10.13393 -0.33555,-0.77757 -1.50506,-3.69343 -2.59892,-6.4797 -1.09386,-2.78627 -2.13244,-5.06595 -2.30796,-5.06595 -0.17552,0 -0.35118,-0.42551 -0.39036,-0.94557 -0.25252,-3.35226 -25.35315,-50.47408 -27.2802,-51.21356 -0.35614,-0.13667 -0.53451,-0.43135 -0.39638,-0.65486 0.27007,-0.43698 -5.19664,-9.39768 -6.08427,-9.97298 -0.2938,-0.19042 -0.37851,-0.34947 -0.18825,-0.35344 0.19027,-0.004 -0.58465,-1.43864 -1.72205,-3.18816 -1.1374,-1.74952 -1.98541,-3.26617 -1.88446,-3.37034 0.10094,-0.10416 2.11406,0.70758 4.47361,1.80387 2.35955,1.09629 4.40933,1.87402 4.55506,1.72828 0.14574,-0.14573 0.49801,0.0155 0.78282,0.35827 0.64901,0.78111 11.61125,5.62646 11.95399,5.28371 0.13857,-0.13857 0.48497,0.0305 0.76979,0.37565 0.64947,0.78711 12.05616,5.64844 12.41398,5.29062 0.14476,-0.14476 0.49623,0.0228 0.78104,0.37229 0.58837,0.72202 10.62919,5.00487 11.73355,5.00487 0.39746,0 0.79334,0.17186 0.87974,0.38191 0.22103,0.53736 12.20767,5.3965 12.52628,5.07789 0.14376,-0.14376 0.49442,0.0237 0.77923,0.37216 0.68929,0.84329 11.52577,5.10352 12.09176,4.75373 0.24364,-0.15059 0.44299,-0.0741 0.44299,0.17004 0,0.57227 12.20024,5.35474 12.76683,5.00457 0.23551,-0.14555 0.4282,-0.0678 0.4282,0.17278 0,0.46469 11.11325,4.80196 12.30392,4.80196 0.38643,0 0.90406,0.19895 1.15029,0.4421 0.67089,0.66251 12.05257,4.76068 12.48293,4.4947 0.20483,-0.12659 0.44354,-0.0452 0.53047,0.18082 0.18096,0.47052 11.04348,4.4259 12.29278,4.47618 0.45357,0.0182 0.82468,0.15559 0.82468,0.30519 0,0.1496 2.91587,1.19412 6.4797,2.32114 3.56384,1.12702 6.90383,2.23322 7.42221,2.45823 2.50257,1.08627 12.18687,4.12226 12.51077,3.92208 0.20247,-0.12514 0.43925,-0.0609 0.52619,0.14285 0.24107,0.56487 11.69948,3.97922 12.42272,3.70169 0.34862,-0.13378 0.70415,-0.0323 0.79007,0.22541 0.16702,0.50106 12.69636,4.28009 13.04261,3.93384 0.1133,-0.1133 0.43757,-0.019 0.72061,0.20962 0.52127,0.42099 8.01491,2.54911 11.70068,3.32289 1.10492,0.23195 3.1753,0.75693 4.60083,1.16661 1.42554,0.40968 4.50045,1.16219 6.83314,1.67225 2.33269,0.51006 6.59938,1.45819 9.48153,2.10696 2.88215,0.64878 5.95706,1.29487 6.83314,1.43576 0.87607,0.14089 4.24365,0.78024 7.4835,1.42076 3.23985,0.64053 6.36778,1.05681 6.95095,0.92507 0.58318,-0.13174 1.06032,-0.0597 1.06032,0.16008 0,0.37066 12.02733,2.15398 12.99583,1.92692 0.23915,-0.0561 0.75291,0.0261 1.1417,0.18273 1.53859,0.61963 12.95311,1.15347 13.30562,0.62229 0.23841,-0.35926 0.34847,-0.3324 0.35344,0.0862 0.0137,1.1572 26.19144,0.305 27.64328,-0.89991 0.30103,-0.24984 0.62097,-0.27133 0.71097,-0.0478 0.14067,0.34942 2.49263,0.10106 14.77242,-1.55992 1.03675,-0.14023 4.2177,-0.68562 7.06877,-1.21196 2.85106,-0.52635 5.81995,-1.06515 6.59751,-1.19734 4.9186,-0.83616 12.27139,-2.58079 12.39116,-2.9401 0.0782,-0.2346 0.50312,-0.33237 0.94427,-0.21727 0.77255,0.20158 6.74867,-1.03033 11.64087,-2.39961 1.29594,-0.36273 4.68894,-1.24091 7.54001,-1.95153 2.85107,-0.71061 5.71392,-1.50031 6.36189,-1.7549 0.64797,-0.25458 1.52318,-0.50155 1.9449,-0.54882 1.38276,-0.15499 11.95127,-3.24676 12.19263,-3.5669 0.12959,-0.17189 0.55746,-0.30927 0.95082,-0.30527 1.20756,0.0122 12.46964,-3.53315 12.63789,-3.97854 0.0869,-0.23012 0.32946,-0.31248 0.53894,-0.18302 0.44061,0.27232 12.3805,-3.46049 12.73365,-3.98096 0.12959,-0.19099 0.55372,-0.34405 0.9425,-0.34012 1.29604,0.0131 12.72378,-3.99063 12.72378,-4.4578 0,-0.25302 0.19819,-0.33754 0.44042,-0.18783 0.56314,0.34804 11.67595,-3.44651 12.49645,-4.267 0.33946,-0.33946 0.73793,-0.49647 0.88549,-0.34891 0.3826,0.38259 12.56769,-4.12262 12.56769,-4.64668 0,-0.23904 0.19876,-0.31179 0.4417,-0.16164 0.37963,0.23462 7.65899,-2.30645 12.04645,-4.20516 0.77756,-0.3365 3.32232,-1.30658 5.65501,-2.15575 2.33269,-0.84915 5.19554,-1.96787 6.36189,-2.48602 1.16634,-0.51816 2.33269,-0.99129 2.59188,-1.05141 1.42975,-0.33163 11.80601,-4.68955 11.93834,-5.01398 0.0864,-0.21179 0.52149,-0.38508 0.96682,-0.38508 1.20282,0 12.02118,-4.56262 12.21793,-5.1529 0.0931,-0.27939 0.36023,-0.39 0.59354,-0.24581 0.50523,0.31226 11.91356,-4.39991 12.14051,-5.0146 0.0864,-0.234 0.52172,-0.42546 0.96743,-0.42546 0.82917,0 11.88019,-4.60672 12.30615,-5.12995 0.1296,-0.15919 0.55372,-0.35847 0.9425,-0.44284 1.55504,-0.33749 11.78128,-4.97553 11.78128,-5.34333 0,-0.21664 0.34312,-0.3939 0.76243,-0.3939 0.41937,0 2.67049,-0.85913 5.00252,-1.90919 2.33203,-1.05005 4.34979,-1.79944 4.48391,-1.6653 0.13416,0.13414 -0.63501,1.64568 -1.70928,3.35899 -1.07421,1.7133 -1.84584,3.28872 -1.71469,3.50092 0.13115,0.21221 -0.0396,0.49244 -0.37898,0.62275 -0.33954,0.13031 -1.83467,2.32618 -3.32246,4.8797 -1.48779,2.55353 -2.89994,4.96088 -3.13811,5.34966 -0.23812,0.38878 -1.61714,2.8275 -3.0645,5.41938 -1.4473,2.59188 -2.82203,5.03061 -3.05493,5.41939 -1.51705,2.53278 -5.14733,9.37967 -5.26703,9.93391 -0.0795,0.36808 -0.26677,0.77527 -0.41621,0.90486 -0.98849,0.85721 -10.86261,21.19935 -10.54207,21.71805 0.14642,0.23691 0.0719,0.43074 -0.1656,0.43074 -0.53402,0 -4.99356,10.33863 -4.62042,10.71173 0.14821,0.14821 -0.024,0.50251 -0.38247,0.78732 -0.35853,0.28482 -1.44311,2.74451 -2.41016,5.46599 -0.96706,2.72147 -2.02949,5.58432 -2.36097,6.36189 -0.33148,0.77756 -1.15537,3.32231 -1.83091,5.65501 -0.67553,2.33269 -1.4244,4.87744 -1.66412,5.65501 -0.88987,2.88643 -1.86936,7.20169 -2.67421,11.78127 -1.30782,7.44157 -1.14458,24.59475 0.31847,33.45882 0.25664,1.55512 0.48261,3.1456 0.50207,3.53438 0.0306,0.60917 1.26936,8.15792 2.04952,12.48815 0.14005,0.77756 0.37035,2.15597 0.51168,3.06313 0.14138,0.90716 0.65042,3.34588 1.13124,5.41938 0.48086,2.07351 1.4417,6.26175 2.13528,9.30721 0.69354,3.04546 1.45009,5.5372 1.68129,5.5372 0.23119,0 0.3097,0.28829 0.1745,0.64065 -0.23685,0.61718 1.91611,9.89284 2.52482,10.87773 0.16381,0.26507 0.32187,0.80833 0.35127,1.20725 0.11192,1.51892 2.76299,10.60866 3.13806,10.75935 0.21635,0.0869 0.28855,0.32765 0.16046,0.53493 -0.12808,0.20728 -0.0419,0.9844 0.19105,1.72694 0.23322,0.74254 1.06814,3.47071 1.85536,6.06259 3.01186,9.91593 4.34394,14.17039 4.72165,15.08003 0.21522,0.51837 1.17855,3.43424 2.14071,6.4797 0.96215,3.04545 1.95965,5.53719 2.21662,5.53719 0.25702,0 0.33068,0.22105 0.16371,0.49122 -0.16696,0.27017 0.0531,1.48953 0.48897,2.70969 l 3.86193,8.69824 -6.03645,31.92825 -6.13669,33.69346 -4.14329,5.12383 c -1.2189,1.50736 -1.92402,3.18569 -1.92402,3.47 0,0.28432 -0.18742,0.58763 -0.41654,0.67403 -0.52205,0.19689 -6.65223,9.62953 -6.65223,10.23598 0,0.24514 -0.17615,0.51639 -0.39147,0.60279 -0.47299,0.1898 -6.11627,8.55659 -6.54855,9.70904 -0.16828,0.44856 -0.55202,1.02762 -0.85277,1.28681 -0.85117,0.73358 -13.88475,19.91197 -13.88475,20.43086 0,0.2537 -0.20259,0.53195 -0.45019,0.61835 -0.66979,0.23371 -7.08983,9.41309 -7.08983,10.13705 0,0.34275 -0.19804,0.62318 -0.4401,0.62318 -0.58073,0 -7.09991,8.95195 -7.09991,9.74939 0,0.33997 -0.18622,0.61813 -0.41383,0.61813 -0.56923,0 -7.28327,8.99107 -7.28327,9.75334 0,0.3378 -0.22973,0.62401 -0.51052,0.63601 -0.6214,0.0266 -7.62733,9.35384 -7.46147,9.93376 0.0648,0.22656 -0.0814,0.41193 -0.32478,0.41193 -0.61155,0 -7.56868,8.94505 -7.56868,9.73134 0,0.3499 -0.20139,0.63618 -0.44752,0.63618 -0.24614,0 -3.14342,3.33999 -6.43839,7.4222 -3.29497,4.08221 -6.80468,8.39014 -7.79936,9.57316 -0.99468,1.18303 -1.80851,2.40239 -1.80851,2.7097 0,0.3073 -0.19378,0.55873 -0.43061,0.55873 -0.57149,0 -8.05191,8.71219 -8.05191,9.37778 0,0.28517 -0.18779,0.51849 -0.41732,0.51849 -0.22953,0 -1.84229,1.64349 -3.58393,3.65219 -1.74163,2.00871 -4.698,5.3487 -6.56969,7.42221 -6.38445,7.07282 -6.8482,7.63568 -6.5427,7.94119 0.16813,0.16814 0.001,0.3057 -0.37021,0.3057 -0.7489,0 -8.74013,8.45711 -8.55276,9.05136 0.0648,0.20551 -0.14824,0.37366 -0.4734,0.37366 -0.32517,0 -3.87722,3.30271 -7.89346,7.33935 -4.01623,4.03669 -10.11207,9.90146 -13.54631,13.03282 -3.43424,3.13137 -6.24407,5.87245 -6.24407,6.09125 0,0.21885 -0.22128,0.39788 -0.49172,0.39788 -0.64817,0 -9.40455,7.49803 -9.40455,8.05306 0,0.2362 -0.16967,0.37644 -0.37704,0.31164 -0.51411,-0.16065 -9.99048,7.12909 -9.99048,7.68521 0,0.24411 -0.17666,0.39086 -0.39258,0.32606 -0.21592,-0.0648 -2.70493,1.47266 -5.53113,3.41657 -2.82621,1.94391 -7.36795,4.86331 -10.09276,6.48752 -2.72481,1.62426 -5.18723,3.26445 -5.47205,3.64489 -0.28481,0.38044 -0.63356,0.57601 -0.775,0.43454 -0.24833,-0.2483 -10.71745,4.79781 -11.1953,5.39615 -0.12959,0.1623 -0.55372,0.33233 -0.9425,0.37795 -1.29167,0.15146 -10.59804,3.63061 -10.9039,4.07641 -0.16541,0.24109 -0.50341,0.31305 -0.7511,0.15999 -0.24769,-0.15306 -1.2787,-0.049 -2.29113,0.2312 -5.2076,1.44146 -10.63738,2.19098 -16.3424,2.25588 -3.38676,0.0386 -6.33382,0.17884 -6.54902,0.31182 -0.2152,0.13299 -0.39127,0.0174 -0.39127,-0.25725 z M 334.18211,609.7987 c -0.14919,-0.38879 -0.0866,-0.70688 0.13914,-0.70688 0.33503,0 2.76,-9.20194 3.10471,-11.78127 0.052,-0.38879 0.22685,-1.02497 0.38866,-1.41376 0.6937,-1.66676 2.68253,-11.0537 2.46312,-11.62548 -0.13234,-0.34487 -0.0504,-0.62704 0.18205,-0.62704 0.23246,0 0.67984,-1.14921 0.99418,-2.5538 0.81169,-3.62701 0.91126,-3.72067 3.01944,-2.83982 5.71499,2.38788 16.78294,3.24293 41.95235,3.24104 20.76642,-10e-4 32.7061,-0.47656 47.36072,-1.88417 14.12494,-1.35674 20.05361,-2.67573 21.606,-4.80682 l 0.93734,-1.28676 0.27537,1.17734 c 2.50853,10.72543 7.46028,30.66096 7.82376,31.49814 0.43331,0.998 0.6916,1.07697 2.70798,0.82779 1.22595,-0.15149 5.72803,-0.49951 10.00463,-0.77339 31.72744,-2.03179 67.25742,-9.21336 82.70454,-16.71681 7.29039,-3.54132 14.1767,-8.70278 15.79838,-11.84129 0.38247,-0.74021 0.93738,-1.60296 1.23313,-1.91723 1.04554,-1.11099 3.53766,-7.80273 4.2052,-11.29164 0.89567,-4.68128 0.8645,-15.26699 -0.0646,-21.92818 -1.41348,-10.13421 -4.71641,-21.20245 -9.50577,-31.85415 -2.54783,-5.66646 -2.59828,-5.86204 -2.24915,-8.71814 0.19643,-1.60691 0.38457,-3.45181 0.4181,-4.09978 0.0335,-0.64797 0.18417,-1.28416 0.33477,-1.41375 0.23012,-0.19802 0.8021,-2.87766 2.51474,-11.78127 0.12464,-0.64797 0.77553,-3.70824 1.44641,-6.80061 0.6709,-3.09236 1.11772,-5.88849 0.99296,-6.21362 -0.12477,-0.32514 -0.0677,-0.65788 0.1268,-0.73942 0.28978,-0.12148 2.1418,-8.21989 2.72385,-11.91077 0.0834,-0.5287 0.68922,-3.50247 1.34631,-6.6084 0.6571,-3.10592 1.09164,-5.91575 0.96565,-6.24407 -0.12599,-0.32832 -0.0534,-0.59694 0.16131,-0.59694 0.32424,0 1.79463,-6.41745 2.6666,-11.63823 0.12136,-0.72664 0.75936,-3.75989 1.41778,-6.74056 0.65842,-2.98066 1.10316,-5.78032 0.9883,-6.22148 -0.11485,-0.44115 -0.0448,-0.86527 0.15575,-0.9425 0.34969,-0.13468 2.91167,-11.31687 2.75877,-12.04112 -0.0409,-0.19349 0.0501,-0.6699 0.20209,-1.05869 0.22825,-0.58383 1.21173,-5.26703 2.37511,-11.31002 0.12475,-0.64797 0.77553,-3.78696 1.44617,-6.97553 0.67065,-3.18857 1.18938,-5.94539 1.15274,-6.12626 -0.0367,-0.18087 0.0616,-0.64695 0.2183,-1.03574 0.60781,-1.50795 2.28135,-10.94417 2.04857,-11.55079 -0.13525,-0.35246 -0.0321,-0.71211 0.22927,-0.79923 0.61978,-0.20659 1.03948,-3.73916 0.53259,-4.48283 -0.21543,-0.31609 -7.06317,-3.14551 -15.21718,-6.28762 l -14.82547,-5.71292 -53.7226,-10.69851 -53.72261,-10.69852 -17.67191,0.34894 c -9.71955,0.19191 -36.33345,0.69297 -59.14199,1.11345 -22.80854,0.4205 -42.31833,0.84769 -43.35509,0.94933 -1.03675,0.10163 -25.42398,4.86268 -54.19385,10.5801 l -52.30885,10.3953 -15.71191,5.99945 -15.7119,5.99945 0.26871,1.99761 c 0.14778,1.09869 0.67575,3.74947 1.17324,5.89063 0.49749,2.14117 1.37923,6.33176 1.95943,9.31242 0.58019,2.98066 1.18341,5.63145 1.3405,5.89063 0.15708,0.25919 0.29713,0.89538 0.31121,1.41376 0.0506,1.86066 2.28778,12.0169 2.64708,12.0169 0.20192,0 0.2598,0.27972 0.12861,0.62159 -0.1312,0.34188 0.31037,3.15172 0.98126,6.24408 0.67089,3.09236 1.32067,6.15263 1.44396,6.8006 1.40541,7.38661 2.25239,11.16238 2.59963,11.58901 0.23036,0.28303 0.3136,0.61985 0.18498,0.74847 -0.36987,0.36987 2.09742,11.91518 2.58159,12.08021 0.23925,0.0815 0.32434,0.43663 0.18909,0.78909 -0.228,0.59415 1.42286,9.95963 2.03607,11.55079 0.14983,0.38879 0.33184,1.14551 0.40446,1.68162 0.47401,3.49924 2.29921,11.51341 2.62214,11.51341 0.2147,0 0.28729,0.26862 0.1613,0.59694 -0.12598,0.32832 0.30856,3.13815 0.96565,6.24407 0.6571,3.10593 1.26868,6.07127 1.35907,6.58964 0.91581,5.2519 2.41632,11.813 2.7305,11.93934 0.21618,0.0869 0.27667,0.34638 0.13442,0.57655 -0.14226,0.23018 0.32015,3.0219 1.02756,6.20383 0.70742,3.18193 1.28418,6.52755 1.2817,7.43471 -0.003,0.95693 -0.95038,3.72671 -2.25753,6.59751 -1.23916,2.72148 -2.52894,5.58432 -2.86619,6.36189 -0.83086,1.91564 -3.46468,9.45823 -3.75189,10.74448 -0.12733,0.57023 -0.77915,2.83933 -1.44847,5.04242 -0.66932,2.2031 -1.25657,5.01128 -1.305,6.24039 -0.0484,1.22913 -0.2227,2.23642 -0.38728,2.23845 -0.60959,0.007 -1.33595,7.50691 -1.33389,13.77195 0.002,6.51015 0.57457,11.3177 1.38021,11.59192 0.23957,0.0815 0.31584,0.4603 0.16949,0.84169 -0.47641,1.24152 3.43341,10.29125 4.96765,11.4982 0.16474,0.12959 0.53068,0.65975 0.81319,1.17812 0.71404,1.31017 6.19843,5.85739 8.96891,7.43631 6.61428,3.76954 23.46812,10.27964 24.67756,9.53216 0.26225,-0.16208 0.47681,-0.10601 0.47681,0.12459 0,0.2306 2.59777,1.003 5.77282,1.71644 3.17506,0.71344 7.04521,1.58631 8.60033,1.93972 2.72163,0.61849 6.93669,1.4017 9.89627,1.83884 0.77757,0.11485 3.42835,0.52787 5.89064,0.91782 2.46229,0.38995 5.43117,0.82372 6.59751,0.96394 1.16635,0.14021 4.55936,0.54768 7.54002,0.90549 2.98066,0.35781 5.84351,0.66149 6.36188,0.67483 0.51838,0.0133 3.1512,0.27326 5.85071,0.57759 2.69951,0.30432 5.50934,0.46509 6.24407,0.35725 0.73473,-0.10784 1.33588,-0.0296 1.33588,0.17375 0,0.33719 2.35256,0.52089 10.0645,0.78587 2.28356,0.0785 2.71328,-0.0272 2.48885,-0.61204 z"
       id="face1"
       sodipodi:nodetypes="scssssssscssscssssssssssssssssscsssssssscscccsssscssssssssssssscssssssssssssssssssssssssssssssssssssssssssssssssssssssscssssssssssssssssssssssssssssssssssssssssssssssscssssssssssssssssssssssscsssssscccssssssssssssssssssssssssssssssssssssssssssssssscsssssssssssscsscssssssssssssssssssssssssssssssssssscccsssscccsssssssssssssssssssssscsssssccssssssssssssssssssss"
       inkscape:label="face1"
       transform="scale(0.26458333)" /><path
       style="display:inline;opacity:1;fill:#ffe6d5;fill-opacity:1;fill-rule:evenodd;stroke:#000000;stroke-width:0.264583;stroke-opacity:1"
       d="m 174.74569,107.84269 c 0.50681,-0.83451 1.27201,-1.50959 2.16319,-1.90842 0.89118,-0.39883 1.90443,-0.51965 2.8644,-0.34157 1.53486,0.28473 2.86184,1.31088 3.77121,2.57971 0.90936,1.26883 1.44226,2.76835 1.83963,4.27798 2.1419,8.1371 0.60923,16.7207 -0.49874,25.06171 -0.49432,3.72135 -0.90462,7.46925 -1.87028,11.09697 -0.74641,2.80406 -1.84356,5.55761 -3.61587,7.85517 -0.96933,1.2566 -2.16838,2.38128 -3.63225,2.99425 -0.73193,0.30649 -1.52188,0.48056 -2.31539,0.48235 -0.79351,0.002 -1.58836,-0.17049 -2.30414,-0.51299 -0.71579,-0.34251 -1.34914,-0.85439 -1.83809,-1.47936 -0.48896,-0.62497 -0.832,-1.35959 -1.0249,-2.1293 -0.38579,-1.53942 -0.1378,-3.15827 0.15702,-4.71767 l 3.77444,-19.96393 2.52977,-23.2949"
       id="rightEar-2"
       inkscape:path-effect="#path-effect3596-2"
       inkscape:original-d="m 174.74569,107.84269 c 1.96353,-0.71668 3.06354,-1.53279 5.02759,-2.24999 1.96406,-0.7172 3.74029,4.57206 5.61084,6.85769 1.87054,2.28563 -0.33276,16.70807 -0.49874,25.06171 -0.16599,8.35364 -1.24712,7.39825 -1.87028,11.09697 -0.62316,3.69873 -2.41085,5.23705 -3.61587,7.85517 -1.20503,2.61812 -11.68633,-1.50908 -10.95775,-5.36272 l 3.77444,-19.96393 2.52977,-23.2949"
       sodipodi:nodetypes="csssssscc"
       inkscape:label="leftEar" /><path
       style="display:inline;opacity:1;fill:#ffe6d5;stroke:#000000;stroke-width:0.265;stroke-dasharray:3.18, 0.265;stroke-dashoffset:0"
       d="m 94.072807,101.21423 1.322485,10.05089 -0.08816,10.09497 -1.322486,10.09498 -3.218047,11.19704 -1.190239,1.54616 -4.893196,-4.72012 -23.672493,-5.24586 -7.670416,-37.073682 15.957994,-0.264499 14.635506,0.617162 z"
       id="rightOrbital" /><path
       style="display:inline;opacity:1;fill:#ffe6d5;fill-rule:nonzero;stroke:#000000;stroke-width:1.00157;stroke-linecap:butt;stroke-linejoin:miter;stroke-dasharray:12.0189, 1.00157;stroke-dashoffset:0;stroke-opacity:1;paint-order:normal"
       d="m 464.67876,605.71353 c -0.1361,-0.60422 -1.95093,-7.95644 -4.03296,-16.33824 -2.08203,-8.38181 -3.81903,-15.69798 -3.86,-16.25816 -0.041,-0.56018 0.73792,-2.27886 1.73087,-3.81928 2.25963,-3.50554 4.77374,-8.91087 5.19571,-11.17078 0.38541,-2.06409 -0.34361,-5.83431 -2.16665,-11.20506 -1.54036,-4.53796 -1.7954,-3.83803 3.08186,-8.45773 1.81355,-1.71777 5.48586,-5.24386 8.16069,-7.83574 2.67484,-2.59188 5.33175,-4.9187 5.90425,-5.17072 0.5725,-0.25202 1.14694,-0.57011 1.27654,-0.70688 0.12959,-0.13676 1.00739,-0.27077 1.95065,-0.29779 0.94327,-0.027 4.12421,-0.61127 7.06876,-1.29835 6.77314,-1.58042 14.727,-3.35713 21.37627,-4.77496 2.85107,-0.60793 6.13804,-1.34191 7.30439,-1.63106 2.45071,-0.60756 10.66193,-2.42872 18.14316,-4.02395 2.85107,-0.60793 6.13804,-1.34191 7.30439,-1.63106 2.77771,-0.68863 11.52259,-2.61838 18.61441,-4.10769 3.11026,-0.65316 5.88308,-1.37477 6.16183,-1.60358 0.57372,-0.47094 1.05923,0.43894 4.48405,8.40349 8.07896,18.78791 11.14136,39.81147 7.73903,53.12887 -1.0079,3.94513 -4.06938,10.00055 -6.38751,12.63408 -2.38613,2.71079 -9.78039,7.70202 -14.7969,9.98812 -16.94758,7.72326 -53.51792,14.79256 -85.32442,16.4938 -2.85107,0.1525 -5.97063,0.39067 -6.93237,0.52927 -1.54411,0.22253 -1.77754,0.12352 -1.99605,-0.8466 z"
       id="leftInfraorbital"
       transform="scale(0.26458333)" /></g></svg>
