<?xml version="1.0" encoding="UTF-8"?>
<svg id="svg5" xmlns="http://www.w3.org/2000/svg" viewBox="0 0 458.84 678.45">
  <defs>
    <style>
      .cls-1 {
        stroke-dasharray: 0 0 9.73 .81;
        stroke-width: .81px;
      }

      .cls-1, .cls-2, .cls-3, .cls-4, .cls-5, .cls-6, .cls-7, .cls-8, .cls-9, .cls-10 {
        fill: #ffe6d5;
      }

      .cls-1, .cls-2, .cls-4, .cls-11, .cls-5, .cls-6, .cls-8, .cls-9, .cls-10, .cls-12 {
        stroke: #000;
      }

      .cls-1, .cls-2, .cls-4, .cls-11, .cls-5, .cls-9, .cls-10, .cls-12 {
        stroke-miterlimit: 11.34;
      }

      .cls-1, .cls-2, .cls-5, .cls-6, .cls-9, .cls-10 {
        fill-rule: evenodd;
      }

      .cls-2, .cls-5, .cls-6, .cls-12 {
        stroke-width: .75px;
      }

      .cls-2, .cls-6 {
        stroke-dasharray: 0 0 9 .75;
      }

      .cls-3 {
        stroke-width: .81px;
      }

      .cls-3, .cls-7 {
        stroke: #ffe6d5;
      }

      .cls-3, .cls-7, .cls-8 {
        stroke-miterlimit: 3;
      }

      .cls-4 {
        stroke-dasharray: 0 0 9.01 .75;
        stroke-width: .75px;
      }

      .cls-11 {
        fill: #000;
        stroke-width: .81px;
      }

      .cls-6 {
        stroke-linejoin: bevel;
      }

      .cls-7 {
        stroke-dasharray: 0 0 4.25 .35;
        stroke-width: .35px;
      }

      .cls-8 {
        stroke-dasharray: 0 0 9.01 .75;
        stroke-width: .75px;
      }

      .cls-9 {
        stroke-dasharray: 0 0 8.21 .68;
        stroke-width: .68px;
      }

      .cls-10 {
        stroke-dasharray: 0 0 8.51 .71;
        stroke-width: .71px;
      }

      .cls-12 {
        fill: #520;
      }
    </style>
  </defs>
  <path id="rightEyebrow" class="cls-12" d="M184.08,224.68c7.61,11.81,8.33,24.16,12.5,36.24l-28.74-10.5-41.49-1.75-45.24.75,22.74-8.75,80.22-15.99Z"/>
  <path id="path4252" class="cls-6" d="M50.44,394.96s109.32,175.68,180.3,175.36,178.22-175.36,178.22-175.36l-4.55,21.38-7.07,40.56-5.12,36.76-4.86,14.31-7.6,12.02-10.02,10.46-12.25,12.78-5.01,5.23-17.26,18.01-22.27,17.58-19.88,13.62-9.19,5.11-20.13,8.64-14.69,2.76-15.55,1.33-12.92.7-12.61-3.09-16.26-5.21-16.26-5.21-25.89-14.76-39.5-34.28-19.38-21.73-12.78-15.03-6.8-10.51-5.92-13.78-12.81-73.34-1.94-24.3Z"/>
  <path id="leftEyebrow" class="cls-12" d="M274.04,222.96l-12.5,36.24,28.74-10.5,41.49-1.75,45.24.75-22.74-8.75-80.22-15.99Z"/>
  <path id="rightInfraorbital" class="cls-2" d="M102.86,354.51s-19.14,35.57-5.77,54.93,83.13,21.91,83.13,21.91l6.11-25.24s-5.22-7.32-5.64-11.21,3.14-12.15,3.14-12.15l-13.87-13.38-67.1-14.87"/>
  <path id="rightEar" class="cls-5" d="M36.39,272.05c-1.81-2.58-4.43-4.59-7.39-5.67-2.96-1.08-6.26-1.23-9.31-.42-4.23,1.12-7.85,4.03-10.44,7.56-2.59,3.53-4.23,7.68-5.47,11.88-6.74,22.92-1.96,47.39,1.41,71.04,1.5,10.53,2.73,21.13,5.3,31.46,1.99,8,4.9,15.99,10.25,22.27,2.67,3.13,5.99,5.81,9.89,7.14,3.89,1.33,8.33,1.17,11.99-.71,3.66-1.88,6.35-5.42,7.49-9.38,1.14-3.95.79-8.16.32-12.25l-14.05-122.91"/>
  <path id="neck" class="cls-5" d="M369.73,530.44l-34.51,36.02-22.27,17.58-19.88,13.62-9.19,5.11-20.13,8.64-14.69,2.76-15.55,1.33s-5.18.37-12.92.7c-6.19-1.51-8.49-1.77-12.62-3.09l-32.52-10.43-25.89-14.76-39.5-34.28-19.38-21.73c.09,5.63.45,11.26,1.08,16.86,4.7,19.04,3.97,37.15,3.98,54.74.09,11.56-2.93,23.19-9.05,33,39.47,22.04,89.11,35.91,134.09,40.49,4.17.43,8.36.77,12.55,1.04v.02c.06,0,.12,0,.18-.01.06,0,.12,0,.18.01v-.02c4.19-.27,8.37-.61,12.55-1.04,44.98-4.58,88.99-18.45,128.46-40.49-7.06-8.14-4.32-17.27-5.88-27.93-.71-18.47-4.44-37.47-1.92-53.94.43-2.46.85-4.92,1.28-7.38l1.54-16.83Z"/>
  <path id="rightParietal" class="cls-2" d="M32.21,97.97c29.84-7.98,48.94-12.94,66.09-17.15,10.88-2.67,20.56-5.41,33.75-7.34,9.04-1.32,24.19-3.94,38.83-4.93,28.23-1.89,57.12-1.54,57.12-1.54,0,0,.74-32.48-.44-66.63,0,0-159.11,2.77-195.34,97.59h0Z"/>
  <path id="rightParietal-3" class="cls-2" d="M421.81,95.8c-28.45-8.74-43.36-13.59-60.52-17.79-10.88-2.67-22.57-5.76-35.76-7.69-9.04-1.32-25.35-3.33-40.02-3.62-28.85-.58-57.53.32-57.53.32,0,0,.6-31.9-.44-66.63,0,0,156.79-2.76,194.26,95.42h0Z"/>
  <path id="frontal" class="cls-1" d="M23.65,154.79s134.34,63.45,204.94,63.78c70.6.33,205.51-63.49,205.51-63.49,0,0-.64-14.16-3.17-29.15-2.23-13.22-8.29-26.72-9.11-30.13-102.78-32.61-116.88-29.7-193.82-28.79-77.62.92-84.87,1.25-195.79,30.96,0,0-4.5,6.25-7.15,24.15s-1.41,32.67-1.41,32.67Z"/>
  <path id="rightTemporal" class="cls-9" d="M23.65,154.79s36.77,54.41,39.91,86.39c3.05,30.95-19.98,93.83-19.98,93.83l-6.3-55.11-.9-7.84-5.01-25.06-2.41-11.44-2.83-25.89-2.31-43.5-.18-11.37"/>
  <path id="leftTemporal" class="cls-10" d="M434.1,155.07s-35.76,54.64-38.83,87.55c-3.08,32.92,22.82,103.11,22.82,103.11l3.02-21.74,3.71-41.18,8.85-62.76.48-13.63-.13-34.15.08-17.22"/>
  <path id="sinus" class="cls-3" d="M185.52,404.02c-2.7-4.74-4.4-7.82-4.4-9.86,0-1.8.85-5.16,2.26-8.92.72-1.92.96-2.34,2.52-4.35l1.72-2.23,4.61-16.06,4.61-16.06,1.86-14.31,1.86-14.31.11-14.49.11-14.49-1.78-13.42c-.98-7.38-1.78-13.61-1.78-13.85s-.39-1.64-.87-3.11c-.48-1.47-1.48-5.1-2.22-8.06-3.01-11.97-4.38-16.16-7.02-21.46-.48-.97-1.28-2.56-1.62-3.12s-.58-1.07-.52-1.12c.11-.11,1.64-.14,52.43-1.11,19.68-.38,35.81-.66,35.84-.64s-2.62,8.48-6.04,18.38c-3.68,10.67-6.24,18.34-6.27,18.83-.03.45-.86,6.86-1.82,14.23l-1.76,13.4.15,14.49.15,14.49,1.86,14.09,1.86,14.09,4.53,15.77c2.49,8.67,4.62,15.94,4.73,16.14.55.99,3.56,4.68,3.76,4.61.26-.1.21-.22,1.33,3.06.98,2.87,1.57,5.5,1.57,6.99,0,1.94-1.49,5.46-4.22,9.57,0,0-.71,1.32-1.45,2.67-.22.4-.46.79-.64,1.18-2.11,4.54-80.31,7.39-84.22,1.13s-1.22-2.13-1.22-2.13h0Z"/>
  <path id="noseBridge" class="cls-11" d="M229.19,242.9l1.12,127.48"/>
  <path id="leftOrbital" class="cls-8" d="M274.05,380.52c-.53-.55-1.44-1.64-2.01-2.42-1.21-1.63-.68,0-6.65-20.7l-3.54-12.28-1.86-13.87-1.86-13.87-.18-14.76-.18-14.76,1.07-8.13c.59-4.47,1.39-10.67,1.79-13.78.39-3.11.76-5.79.81-5.95.05-.16.3-.37.57-.47s6.8-2.48,14.53-5.29l14.05-5.12,9.54-.39c5.25-.21,14.16-.59,19.79-.83,8.96-.39,11.34-.44,18.95-.35,12.43.15,30.45.44,34.63.57l3.57.11-.1.56c-.7,3.75-7.51,36.99-15.7,76.54-2.98,14.38-5.38,26.31-5.33,26.51s.13.48.2.63c.07.17.03.29-.11.3-.52.04-3.77,1.01-3.82,1.14-.03.08-.13.09-.23.04-.15-.09-3.4.51-4.04.76-.15.05-.45.12-.67.15-1.15.15-4.1.86-4.1.98,0,.08-.11.1-.24.05-.22-.08-2.69.41-4.09.82-.29.08-1.33.32-2.3.53-.97.2-1.89.42-2.03.47-.15.06-.45.12-.67.15-1.15.15-4.1.86-4.1.98,0,.08-.11.1-.24.05s-1.1.11-2.16.36c-1.06.25-2.13.49-2.37.53-.82.14-3.8.81-4.06.92-.15.06-.42.12-.62.14-.83.08-3.98.87-3.98,1,0,.08-.1.1-.23.06-.12-.05-1.1.12-2.16.36-1.07.25-2.14.48-2.38.52-.73.12-3.78.8-4.06.91-.15.06-.51.13-.82.16s-1.38.25-2.39.49c-1.89.45-5.93,1.39-6.26,1.45-1.96.38-4.07.89-4.12,1-.03.08-.12.1-.2.06-.3-.19-3.98.42-4.18.69-.11.15-.24.23-.28.18-.26-.26-2.52,1.71-8,6.98-1.26,1.21-2.99,2.88-3.85,3.7-.85.82-1.55,1.6-1.55,1.73s-.07.2-.15.15c-.14-.09-.45.4-.6.96-.05.18-.37-.04-1.04-.74h0Z"/>
  <path id="face1" class="cls-7" d="M225.56,569.75c0-.21-.36-.38-.8-.38-.44,0-2.31-.33-4.15-.74s-3.6-.77-3.89-.81c-.29-.05-.77-.19-1.06-.31-.7-.3-7.5-2.75-7.95-2.86-.19-.05-2.3-1.07-4.68-2.28-2.38-1.2-4.33-2.07-4.34-1.92,0,.15-.12.1-.27-.11-.37-.53-7.59-4.85-8.12-4.86-.24,0-.44-.11-.44-.25s-1.71-1.41-3.8-2.85c-4.42-3.03-10.93-7.99-15.46-11.79-1.75-1.46-3.38-2.66-3.62-2.67-.24,0-.4-.13-.35-.28.13-.39-6.67-6.46-6.93-6.19-.12.12-.22.06-.22-.15,0-.48-5.9-6.25-6.54-6.4-.27-.06-.54-.31-.6-.54-.06-.24-1.65-1.9-3.54-3.69-1.88-1.79-3.33-3.26-3.2-3.26s-1.52-1.79-3.65-3.98c-7.06-7.24-14.38-15.43-23.77-26.6-2.45-2.92-4.62-5.49-4.82-5.72-.2-.23-1.55-1.93-3.01-3.78-1.46-1.85-2.85-3.38-3.09-3.39-.24,0-.4-.17-.35-.35.11-.43-5.31-7.44-5.76-7.44-.19,0-.3-.12-.25-.27.05-.15-2.27-3.37-5.16-7.16-7.77-10.19-11.74-15.55-15.25-20.6-1.17-1.68-2.33-3.06-2.58-3.06-.25,0-.38-.15-.27-.32.11-.17-1.04-2.04-2.56-4.15-1.51-2.11-3.91-5.55-5.33-7.64-1.42-2.09-2.73-3.8-2.9-3.8s-.32-.2-.32-.44c0-.65-4.54-7.33-5.14-7.56-.28-.11-.44-.31-.35-.46.2-.33-4.62-7.79-5.04-7.79-.17,0-.31-.2-.31-.44,0-.24-1.06-2.07-2.35-4.06l-2.35-3.62-3.41-29.78-3.41-29.78.79-2.45c.43-1.35.83-2.62.87-2.83.05-.21.19-.62.31-.91.64-1.48,2.63-7.78,2.46-7.78-.11,0-.03-.2.17-.44.57-.7,2.63-7.63,2.38-8.03-.12-.2-.08-.36.11-.36.43,0,2.66-7.65,2.37-8.12-.12-.2-.08-.36.1-.36.32,0,2.16-5.97,2.33-7.54.05-.44.18-.95.3-1.15.45-.73,2.06-7.69,1.89-8.15-.1-.26-.06-.48.1-.48.24,0,1.47-4.9,1.95-7.78.08-.49.24-1.12.35-1.41.34-.89,2.72-15.33,2.65-16.08-.04-.39.05-.98.2-1.31.14-.33.29-2.36.32-4.5.03-2.14.18-3.9.32-3.9.15,0,.27-1.91.27-4.24s-.12-4.24-.27-4.24-.22-.6-.15-1.33c.07-.73-.13-2.68-.45-4.33s-.71-3.72-.88-4.59c-.48-2.49-1.9-7.23-2.21-7.36-.16-.07-.2-.25-.1-.41.17-.27-1.43-5.2-2.47-7.6-.25-.58-1.13-2.77-1.95-4.86-.82-2.09-1.6-3.8-1.73-3.8s-.26-.32-.29-.71c-.19-2.51-19.01-37.86-20.46-38.41-.27-.1-.4-.32-.3-.49.2-.33-3.9-7.05-4.56-7.48-.22-.14-.28-.26-.14-.27.14,0-.44-1.08-1.29-2.39-.85-1.31-1.49-2.45-1.41-2.53.08-.08,1.59.53,3.36,1.35,1.77.82,3.31,1.41,3.42,1.3.11-.11.37.01.59.27.49.59,8.71,4.22,8.97,3.96.1-.1.36.02.58.28.49.59,9.04,4.24,9.31,3.97.11-.11.37.02.59.28.44.54,7.97,3.75,8.8,3.75.3,0,.6.13.66.29.17.4,9.16,4.05,9.39,3.81.11-.11.37.02.58.28.52.63,8.64,3.83,9.07,3.57.18-.11.33-.06.33.13,0,.43,9.15,4.02,9.58,3.75.18-.11.32-.05.32.13,0,.35,8.33,3.6,9.23,3.6.29,0,.68.15.86.33.5.5,9.04,3.57,9.36,3.37.15-.09.33-.03.4.14.14.35,8.28,3.32,9.22,3.36.34.01.62.12.62.23s2.19.9,4.86,1.74,5.18,1.67,5.57,1.84c1.88.81,9.14,3.09,9.38,2.94.15-.09.33-.05.39.11.18.42,8.77,2.98,9.32,2.78.26-.1.53-.02.59.17.13.38,9.52,3.21,9.78,2.95.08-.08.33-.01.54.16.39.32,6.01,1.91,8.78,2.49.83.17,2.38.57,3.45.87s3.38.87,5.12,1.25c1.75.38,4.95,1.09,7.11,1.58,2.16.49,4.47.97,5.12,1.08s3.18.59,5.61,1.07c2.43.48,4.78.79,5.21.69s.8-.04.8.12c0,.28,9.02,1.62,9.75,1.45.18-.04.56.02.86.14,1.15.46,9.71.87,9.98.47.18-.27.26-.25.27.06.01.87,19.64.23,20.73-.67.23-.19.47-.2.53-.04.11.26,1.87.08,11.08-1.17.78-.11,3.16-.51,5.3-.91,2.14-.39,4.36-.8,4.95-.9,3.69-.63,9.2-1.94,9.29-2.21.06-.18.38-.25.71-.16.58.15,5.06-.77,8.73-1.8.97-.27,3.52-.93,5.66-1.46,2.14-.53,4.29-1.13,4.77-1.32.49-.19,1.14-.38,1.46-.41,1.04-.12,8.96-2.44,9.14-2.68.1-.13.42-.23.71-.23.91,0,9.35-2.65,9.48-2.98.07-.17.25-.23.4-.14.33.2,9.29-2.6,9.55-2.99.1-.14.42-.26.71-.26.97,0,9.54-2.99,9.54-3.34,0-.19.15-.25.33-.14.42.26,8.76-2.58,9.37-3.2.25-.25.55-.37.66-.26.29.29,9.43-3.09,9.43-3.49,0-.18.15-.23.33-.12.28.18,5.74-1.73,9.03-3.15.58-.25,2.49-.98,4.24-1.62,1.75-.64,3.9-1.48,4.77-1.86s1.75-.74,1.94-.79c1.07-.25,8.85-3.52,8.95-3.76.06-.16.39-.29.73-.29.9,0,9.02-3.42,9.16-3.86.07-.21.27-.29.45-.18.38.23,8.94-3.3,9.11-3.76.06-.18.39-.32.73-.32.62,0,8.91-3.46,9.23-3.85.1-.12.42-.27.71-.33,1.17-.25,8.84-3.73,8.84-4.01,0-.16.26-.3.57-.3s2-.64,3.75-1.43c1.75-.79,3.26-1.35,3.36-1.25.1.1-.48,1.23-1.28,2.52-.81,1.28-1.38,2.47-1.29,2.63.1.16-.03.37-.28.47-.25.1-1.38,1.74-2.49,3.66s-2.17,3.72-2.35,4.01c-.18.29-1.21,2.12-2.3,4.06-1.09,1.94-2.12,3.77-2.29,4.06-1.14,1.9-3.86,7.03-3.95,7.45-.06.28-.2.58-.31.68-.74.64-8.15,15.9-7.91,16.29.11.18.05.32-.12.32-.4,0-3.75,7.75-3.47,8.03.11.11-.02.38-.29.59-.27.21-1.08,2.06-1.81,4.1-.73,2.04-1.52,4.19-1.77,4.77s-.87,2.49-1.37,4.24-1.07,3.66-1.25,4.24c-.67,2.16-1.4,5.4-2.01,8.84-.98,5.58-.86,18.45.24,25.09.19,1.17.36,2.36.38,2.65.02.46.95,6.12,1.54,9.37.11.58.28,1.62.38,2.3.11.68.49,2.51.85,4.06.36,1.56,1.08,4.7,1.6,6.98s1.09,4.15,1.26,4.15.23.22.13.48c-.18.46,1.44,7.42,1.89,8.16.12.2.24.61.26.91.08,1.14,2.07,7.96,2.35,8.07.16.07.22.25.12.4-.1.16-.03.74.14,1.3.17.56.8,2.6,1.39,4.55,2.26,7.44,3.26,10.63,3.54,11.31.16.39.88,2.58,1.61,4.86.72,2.28,1.47,4.15,1.66,4.15s.25.17.12.37c-.13.2.04,1.12.37,2.03l2.9,6.52-4.53,23.95-4.6,25.27-3.11,3.84c-.91,1.13-1.44,2.39-1.44,2.6s-.14.44-.31.51c-.39.15-4.99,7.22-4.99,7.68,0,.18-.13.39-.29.45-.35.14-4.59,6.42-4.91,7.28-.13.34-.41.77-.64.97-.64.55-10.41,14.93-10.41,15.32,0,.19-.15.4-.34.46-.5.18-5.32,7.06-5.32,7.6,0,.26-.15.47-.33.47-.44,0-5.32,6.71-5.32,7.31,0,.25-.14.46-.31.46-.43,0-5.46,6.74-5.46,7.32,0,.25-.17.47-.38.48-.47.02-5.72,7.02-5.6,7.45.05.17-.06.31-.24.31-.46,0-5.68,6.71-5.68,7.3,0,.26-.15.48-.34.48s-2.36,2.5-4.83,5.57-5.1,6.29-5.85,7.18-1.36,1.8-1.36,2.03-.15.42-.32.42c-.43,0-6.04,6.53-6.04,7.03,0,.21-.14.39-.31.39s-1.38,1.23-2.69,2.74c-1.31,1.51-3.52,4.01-4.93,5.57-4.79,5.3-5.14,5.73-4.91,5.96.13.13,0,.23-.28.23-.56,0-6.56,6.34-6.41,6.79.05.15-.11.28-.36.28s-2.91,2.48-5.92,5.5c-3.01,3.03-7.58,7.43-10.16,9.77s-4.68,4.4-4.68,4.57-.17.3-.37.3c-.49,0-7.05,5.62-7.05,6.04,0,.18-.13.28-.28.23-.39-.12-7.49,5.35-7.49,5.76,0,.18-.13.29-.29.24s-2.03,1.1-4.15,2.56-5.53,3.65-7.57,4.87-3.89,2.45-4.1,2.73-.48.43-.58.33c-.19-.19-8.04,3.6-8.4,4.05-.1.12-.42.25-.71.28-.97.11-7.95,2.72-8.18,3.06-.12.18-.38.23-.56.12s-.96-.04-1.72.17c-3.91,1.08-7.98,1.64-12.26,1.69-2.54.03-4.75.13-4.91.23-.16.1-.29.01-.29-.19h0ZM180.55,431.36c-.11-.29-.06-.53.1-.53.25,0,2.07-6.9,2.33-8.84.04-.29.17-.77.29-1.06.52-1.25,2.01-8.29,1.85-8.72-.1-.26-.04-.47.14-.47s.51-.86.75-1.92c.61-2.72.68-2.79,2.26-2.13,4.29,1.79,12.59,2.43,31.46,2.43,15.57,0,24.53-.36,35.52-1.41,10.59-1.02,15.04-2.01,16.2-3.61l.7-.97.21.88c1.88,8.04,5.6,23,5.87,23.62.32.75.52.81,2.03.62.92-.11,4.3-.37,7.5-.58,23.8-1.52,50.44-6.91,62.03-12.54,5.47-2.66,10.63-6.53,11.85-8.88.29-.56.7-1.2.92-1.44.78-.83,2.65-5.85,3.15-8.47.67-3.51.65-11.45-.05-16.45-1.06-7.6-3.54-15.9-7.13-23.89-1.91-4.25-1.95-4.4-1.69-6.54.15-1.21.29-2.59.31-3.07s.14-.96.25-1.06c.17-.15.6-2.16,1.89-8.84.09-.49.58-2.78,1.08-5.1s.84-4.42.74-4.66-.05-.49.1-.55c.22-.09,1.61-6.16,2.04-8.93.06-.4.52-2.63,1.01-4.96s.82-4.44.72-4.68c-.09-.25-.04-.45.12-.45.24,0,1.35-4.81,2-8.73.09-.54.57-2.82,1.06-5.06.49-2.24.83-4.34.74-4.67-.09-.33-.03-.65.12-.71.26-.1,2.18-8.49,2.07-9.03-.03-.15.04-.5.15-.79.17-.44.91-3.95,1.78-8.48.09-.49.58-2.84,1.08-5.23s.89-4.46.86-4.59c-.03-.14.05-.49.16-.78.46-1.13,1.71-8.21,1.54-8.66-.1-.26-.02-.53.17-.6.46-.15.78-2.8.4-3.36-.16-.24-5.3-2.36-11.41-4.72l-11.12-4.28-40.29-8.02-40.29-8.02-13.25.26c-7.29.14-27.25.52-44.36.84-17.11.32-31.74.64-32.52.71-.78.08-19.07,3.65-40.65,7.94l-39.23,7.8-11.78,4.5-11.78,4.5.2,1.5c.11.82.51,2.81.88,4.42.37,1.61,1.03,4.75,1.47,6.98.44,2.24.89,4.22,1.01,4.42.12.19.22.67.23,1.06.04,1.4,1.72,9.01,1.99,9.01.15,0,.19.21.1.47-.1.26.23,2.36.74,4.68.5,2.32.99,4.61,1.08,5.1,1.05,5.54,1.69,8.37,1.95,8.69.17.21.24.46.14.56-.28.28,1.57,8.94,1.94,9.06.18.06.24.33.14.59-.17.45,1.07,7.47,1.53,8.66.11.29.25.86.3,1.26.36,2.62,1.72,8.64,1.97,8.64.16,0,.22.2.12.45-.09.25.23,2.35.72,4.68.49,2.33.95,4.55,1.02,4.94.69,3.94,1.81,8.86,2.05,8.95.16.07.21.26.1.43-.11.17.24,2.27.77,4.65s.96,4.9.96,5.58c0,.72-.71,2.8-1.69,4.95-.93,2.04-1.9,4.19-2.15,4.77-.62,1.44-2.6,7.09-2.81,8.06-.1.43-.58,2.13-1.09,3.78-.5,1.65-.94,3.76-.98,4.68-.04.92-.17,1.68-.29,1.68-.46,0-1,5.63-1,10.33,0,4.88.43,8.49,1.04,8.69.18.06.24.35.13.63-.36.93,2.58,7.72,3.73,8.62.12.1.4.49.61.88.54.98,4.65,4.39,6.73,5.58,4.96,2.83,17.6,7.71,18.51,7.15.2-.12.36-.08.36.09s1.95.75,4.33,1.29,5.28,1.19,6.45,1.45c2.04.46,5.2,1.05,7.42,1.38.58.09,2.57.4,4.42.69s4.07.62,4.95.72c.87.11,3.42.41,5.66.68,2.24.27,4.38.5,4.77.51s2.36.2,4.39.43c2.02.23,4.13.35,4.68.27s1-.02,1,.13c0,.25,1.76.39,7.55.59,1.71.06,2.03-.02,1.87-.46h0Z"/>
  <path id="rightEar-2" class="cls-5" d="M425.26,279.71c1.44-2.37,3.61-4.28,6.13-5.41,2.53-1.13,5.4-1.47,8.12-.97,4.35.81,8.11,3.72,10.69,7.31s4.09,7.85,5.21,12.13c6.07,23.07,1.73,47.4-1.41,71.04-1.4,10.55-2.56,21.17-5.3,31.46-2.12,7.95-5.23,15.75-10.25,22.27-2.75,3.56-6.15,6.75-10.3,8.49-2.07.87-4.31,1.36-6.56,1.37-2.25,0-4.5-.48-6.53-1.45-2.03-.97-3.82-2.42-5.21-4.19s-2.36-3.85-2.91-6.04c-1.09-4.36-.39-8.95.45-13.37l10.7-56.59,7.17-66.03"/>
  <path id="rightOrbital" class="cls-4" d="M196.58,260.92l3.75,28.49-.25,28.62-3.75,28.62-9.12,31.74-3.37,4.38-13.87-13.38-67.1-14.87-21.74-105.09,45.24-.75,41.49,1.75,28.74,10.5Z"/>
  <path id="leftInfraorbital" class="cls-8" d="M278.42,428.3c-.1-.45-1.46-5.97-3.02-12.25-1.56-6.29-2.86-11.77-2.89-12.19-.03-.42.55-1.71,1.3-2.86,1.69-2.63,3.58-6.68,3.9-8.38.29-1.55-.26-4.38-1.62-8.4-1.16-3.4-1.35-2.88,2.31-6.34,1.36-1.29,4.11-3.93,6.12-5.88,2.01-1.94,4-3.69,4.43-3.88.43-.19.86-.43.96-.53.1-.1.76-.2,1.46-.22.71-.02,3.09-.46,5.3-.97,5.08-1.19,11.05-2.52,16.03-3.58,2.14-.46,4.6-1.01,5.48-1.22,1.84-.46,8-1.82,13.61-3.02,2.14-.46,4.6-1.01,5.48-1.22,2.08-.52,8.64-1.96,13.96-3.08,2.33-.49,4.41-1.03,4.62-1.2.43-.35.79.33,3.36,6.3,6.06,14.09,8.36,29.86,5.8,39.85-.76,2.96-3.05,7.5-4.79,9.48-1.79,2.03-7.34,5.78-11.1,7.49-12.71,5.79-40.14,11.09-63.99,12.37-2.14.11-4.48.29-5.2.4-1.16.17-1.33.09-1.5-.63h0Z"/>
</svg>