<?xml version="1.0" encoding="UTF-8" standalone="no"?>
<!-- Created with Inkscape (http://www.inkscape.org/) -->

<svg
   width="161.86922mm"
   height="239.34332mm"
   viewBox="0 0 161.86922 239.34332"
   version="1.1"
   id="svg5"
   xml:space="preserve"
   inkscape:version="1.3.2 (091e20e, 2023-11-25, custom)"
   sodipodi:docname="backHeadV1.svg"
   inkscape:export-filename="frontHeadV2.4.svg"
   inkscape:export-xdpi="96"
   inkscape:export-ydpi="96"
   xmlns:inkscape="http://www.inkscape.org/namespaces/inkscape"
   xmlns:sodipodi="http://sodipodi.sourceforge.net/DTD/sodipodi-0.dtd"
   xmlns="http://www.w3.org/2000/svg"
   xmlns:svg="http://www.w3.org/2000/svg"><sodipodi:namedview
     id="namedview7"
     pagecolor="#ffffff"
     bordercolor="#999999"
     borderopacity="1"
     inkscape:showpageshadow="0"
     inkscape:pageopacity="0"
     inkscape:pagecheckerboard="0"
     inkscape:deskcolor="#d1d1d1"
     inkscape:document-units="mm"
     showgrid="false"
     inkscape:zoom="2.1220118"
     inkscape:cx="323.27813"
     inkscape:cy="403.39078"
     inkscape:window-width="3840"
     inkscape:window-height="2054"
     inkscape:window-x="-11"
     inkscape:window-y="-11"
     inkscape:window-maximized="1"
     inkscape:current-layer="layer1"
     showguides="true"><sodipodi:guide
       position="81.003819,134.49324"
       orientation="1,0"
       id="guide21"
       inkscape:locked="false" /><sodipodi:guide
       position="81.003972,133.64315"
       orientation="1,0"
       id="guide22"
       inkscape:locked="false" /></sodipodi:namedview><defs
     id="defs2"><inkscape:path-effect
       effect="spiro"
       id="path-effect3596"
       is_visible="true"
       lpeversion="1" /><inkscape:path-effect
       effect="spiro"
       id="path-effect3596-2"
       is_visible="true"
       lpeversion="1" /></defs><g
     inkscape:label="Layer 1"
     inkscape:groupmode="layer"
     id="layer1"
     style="display:inline"
     transform="translate(-24.724075,-9.1681759)"><path
       style="display:inline;opacity:1;fill:#ffe6d5;fill-opacity:1;fill-rule:evenodd;stroke:#000000;stroke-width:0.264583;stroke-opacity:1"
       d="m 167.64597,107.84269 c 0.50681,-0.83451 1.27201,-1.50959 2.16319,-1.90842 0.89118,-0.39883 1.90443,-0.51965 2.8644,-0.34157 1.53486,0.28473 2.86184,1.31088 3.77121,2.57971 0.90936,1.26883 1.44226,2.76835 1.83963,4.27798 2.1419,8.1371 0.60923,16.7207 -0.49874,25.06171 -0.49432,3.72135 -0.90462,7.46925 -1.87028,11.09697 -0.74641,2.80406 -1.84356,5.55761 -3.61587,7.85517 -0.96933,1.2566 -2.16838,2.38128 -3.63225,2.99425 -0.73193,0.30649 -1.52188,0.48056 -2.31539,0.48235 -0.79351,0.002 -1.58836,-0.17049 -2.30414,-0.51299 -0.71579,-0.34251 -1.34914,-0.85439 -1.83809,-1.47936 -0.48896,-0.62497 -0.832,-1.35959 -1.0249,-2.1293 -0.38579,-1.53942 -0.1378,-3.15827 0.15702,-4.71767 l 3.77444,-19.96393 2.52977,-23.2949"
       id="rightEar"
       sodipodi:nodetypes="csssssscc"
       inkscape:label="rightEar"
       inkscape:original-d="m 167.64597,107.84269 c 1.96353,-0.71668 3.06354,-1.53279 5.02759,-2.24999 1.96406,-0.7172 3.74029,4.57206 5.61084,6.85769 1.87054,2.28563 -0.33276,16.70807 -0.49874,25.06171 -0.16599,8.35364 -1.24712,7.39825 -1.87028,11.09697 -0.62316,3.69873 -2.41085,5.23705 -3.61587,7.85517 -1.20503,2.61812 -11.68634,-1.50908 -10.95775,-5.36272 l 3.77444,-19.96393 2.52977,-23.2949"
       inkscape:path-effect="#path-effect3596-2" /><path
       style="display:inline;opacity:1;fill:#ffe6d5;fill-opacity:1;fill-rule:evenodd;stroke:#000000;stroke-width:0.264583;stroke-opacity:1"
       d="m 44.261061,105.14074 c -0.638879,-0.91121 -1.562174,-1.61995 -2.607556,-2.0016 -1.045381,-0.38164 -2.208131,-0.43448 -3.283818,-0.14922 -1.493727,0.39612 -2.769261,1.42082 -3.68243,2.66752 -0.913168,1.2467 -1.492253,2.70764 -1.928401,4.19017 -2.378284,8.08416 -0.693094,16.71968 0.49874,25.06171 0.530812,3.71533 0.962399,7.45538 1.870278,11.09697 0.703633,2.82234 1.729723,5.64086 3.615868,7.85517 0.941349,1.10513 2.11369,2.05075 3.487711,2.51927 1.374021,0.46853 2.939306,0.4144 4.230063,-0.24998 1.290758,-0.66438 2.238676,-1.91369 2.641839,-3.30829 0.403164,-1.3946 0.278805,-2.88014 0.113939,-4.32246 l -4.956233,-43.35926"
       id="leftEar"
       sodipodi:nodetypes="cssssssc"
       inkscape:label="leftEar"
       inkscape:original-d="m 44.261061,105.14074 c -1.963526,-0.71668 -3.927319,-1.43362 -5.891374,-2.15082 -1.964055,-0.7172 -3.74029,4.57206 -5.610831,6.85769 -1.870541,2.28563 0.332759,16.70807 0.49874,25.06171 0.165983,8.35364 1.247116,7.39825 1.870278,11.09697 0.62316,3.69873 2.410844,5.23705 3.615868,7.85517 1.205026,2.61812 10.918951,-1.46492 10.473552,-5.36146 l -4.956233,-43.35926"
       inkscape:path-effect="#path-effect3596" /><path
       id="neck"
       style="display:inline;opacity:1;fill:#ffe6d5;fill-opacity:1;fill-rule:evenodd;stroke:#000000;stroke-width:0.264583;stroke-opacity:1"
       d="m 155.15849,196.29603 -12.176,12.70723 -7.85497,6.20329 -7.01286,4.80431 -3.2425,1.804 -7.10054,3.04842 -5.18108,0.97255 -5.48597,0.46767 c 0,0 -1.82697,0.13027 -4.55837,0.24805 -2.18225,-0.53152 -2.993703,-0.62277 -4.450379,-1.08986 l -11.470618,-3.67781 -9.133294,-5.20589 -13.933515,-12.09435 -6.836792,-7.66671 c 0.03213,1.98658 0.15884,3.9719 0.379822,5.9464 1.659361,6.71539 1.398767,13.10497 1.403662,19.31252 0.03226,4.07837 -1.032231,8.18013 -3.191536,11.64012 13.925879,7.77411 31.435545,12.66742 47.30241,14.28285 1.47283,0.14995 2.94864,0.27175 4.42609,0.36587 v 0.008 c 0.0208,-0.001 0.0417,-0.003 0.0625,-0.004 0.0208,0.001 0.0417,0.003 0.0625,0.004 v -0.008 c 1.47745,-0.0941 2.95326,-0.21592 4.42609,-0.36587 15.86686,-1.61543 31.3928,-6.50874 45.31868,-14.28285 -2.49216,-2.86989 -1.52571,-6.09141 -2.07288,-9.85276 -0.2501,-6.51561 -1.56687,-13.21911 -0.67682,-19.02713 0.15037,-0.86765 0.30071,-1.7354 0.45165,-2.60295 z"
       sodipodi:nodetypes="cccccccccccccccccscccccsccccc"
       inkscape:label="neck" /><path
       style="display:inline;opacity:1;fill:#ffe6d5;fill-opacity:1;fill-rule:evenodd;stroke:#000000;stroke-width:0.264583;stroke-dasharray:3.175, 0.264583;stroke-dashoffset:0;stroke-opacity:1"
       d="m 36.835976,43.730064 c -4.445277,8.915608 -0.25831,32.565224 0.520263,44.582755 0.534738,8.253856 0.533356,25.137801 1.144708,25.460271 25.712596,0.1047 44.953034,7.86695 67.261013,8.19572 0,0 0.48835,-24.91888 -0.0139,-55.817251 0,0 0.65868,-28.092077 0,-56.8482293 0,0 -56.130422,0.9758233 -68.912134,34.4267343 z"
       id="leftParietal"
       sodipodi:nodetypes="cssscsc"
       inkscape:label="leftParietal" /><path
       style="display:inline;fill:#ffe6d5;fill-opacity:1;fill-rule:evenodd;stroke:#000000;stroke-width:0.264583;stroke-dasharray:3.175, 0.264583;stroke-dashoffset:0;stroke-opacity:1"
       d="m 174.37201,43.730062 c 4.44528,8.915608 0.25831,32.565224 -0.52027,44.582755 -0.53473,8.253856 -0.53335,25.137803 -1.1447,25.460273 -25.7126,0.1047 -44.6371,7.86695 -66.94508,8.19572 0,0 0.22123,-25.629635 0.004,-56.620672 0,0 0.22881,-11.24273 0.27341,-26.224461 0.007,-2.33499 0.002,-4.797449 -0.009,-7.324639 -0.0127,-2.826617 -0.0338,-5.734212 -0.0566,-8.635 -0.0362,-4.611349 -0.0594,-9.150012 -0.22535,-13.8607083 0,0 55.84218,0.9758213 68.6239,34.4267323 z"
       id="rightParietal"
       sodipodi:nodetypes="cssscssssc"
       inkscape:label="rightParietal" /><path
       style="fill:#ffe6d5;stroke:#000000;stroke-width:0.264999;stroke-dasharray:3.18, 0.264999"
       d="m 38.500947,113.77309 4.702452,43.29901 4.519838,25.87216 2.088475,4.86273 2.40019,3.70938 6.030407,7.00586 5.316085,5.96141 13.933514,12.09435 9.133294,5.20589 15.920998,4.76767 h 3.18185 l 0.0339,-104.58274 c 0,0 -10.421386,-0.26734 -21.87431,-2.28762 -4.536471,-0.80023 -8.315743,-1.4943 -12.906312,-2.33933 -6.02388,-1.10887 -12.134442,-2.14755 -17.702384,-2.70222 -8.183984,-0.81529 -14.778007,-0.86655 -14.778007,-0.86655 l 4.359568,39.01296"
       id="leftOccipital"
       sodipodi:nodetypes="ccccccccccccssscc"
       inkscape:label="leftOccipital" /><path
       style="display:inline;fill:#ffe6d5;stroke:#000000;stroke-width:0.264999;stroke-dasharray:3.18, 0.264999"
       d="m 105.76196,121.96881 -0.0339,104.58274 6.86249,-0.71572 5.18108,-0.97255 7.10054,-3.04842 10.25536,-6.60831 7.85497,-6.20329 12.176,-12.70723 3.53452,-3.68867 2.68073,-4.23929 1.71442,-5.04975 5.90695,-34.81832 3.71193,-34.72691 c 0,0 -6.71979,0.21866 -11.65277,0.55759 -8.13427,0.55888 -16.97924,1.59336 -23.92453,3.6103 -2.2048,0.64028 -5.12705,0.97171 -7.81309,1.43331 -10.9065,1.87427 -23.5547,2.59452 -23.5547,2.59452 z"
       id="rightOccipital"
       sodipodi:nodetypes="cccccccccccccsssc"
       inkscape:label="rightOccipital" /></g></svg>
