R<?xml version="1.0" encoding="UTF-8" standalone="no"?>
<!-- Created with Inkscape (http://www.inkscape.org/) -->

<svg
   width="161.86922mm"
   height="239.34332mm"
   viewBox="0 0 161.86922 239.34332"
   version="1.1"
   id="svg5"
   xml:space="preserve"
   inkscape:version="1.3.2 (091e20e, 2023-11-25, custom)"
   sodipodi:docname="frontHeadV2.2.svg"
   inkscape:export-filename="frontHeadV2.3.svg"
   inkscape:export-xdpi="96"
   inkscape:export-ydpi="96"
   xmlns:inkscape="http://www.inkscape.org/namespaces/inkscape"
   xmlns:sodipodi="http://sodipodi.sourceforge.net/DTD/sodipodi-0.dtd"
   xmlns="http://www.w3.org/2000/svg"
   xmlns:svg="http://www.w3.org/2000/svg"><sodipodi:namedview
     id="namedview7"
     pagecolor="#ffffff"
     bordercolor="#999999"
     borderopacity="1"
     inkscape:showpageshadow="0"
     inkscape:pageopacity="0"
     inkscape:pagecheckerboard="0"
     inkscape:deskcolor="#d1d1d1"
     inkscape:document-units="mm"
     showgrid="false"
     inkscape:zoom="2.1220118"
     inkscape:cx="284.1643"
     inkscape:cy="384.06949"
     inkscape:window-width="3840"
     inkscape:window-height="2054"
     inkscape:window-x="-11"
     inkscape:window-y="-11"
     inkscape:window-maximized="1"
     inkscape:current-layer="layer1"
     showguides="true" /><defs
     id="defs2"><inkscape:path-effect
       effect="spiro"
       id="path-effect3596"
       is_visible="true"
       lpeversion="1" /><inkscape:path-effect
       effect="spiro"
       id="path-effect3596-2"
       is_visible="true"
       lpeversion="1" /></defs><g
     inkscape:label="Layer 1"
     inkscape:groupmode="layer"
     id="layer1"
     style="display:inline"
     transform="translate(-24.724075,-9.1681759)"><path
       style="display:inline;opacity:1;fill:#ffe6d5;fill-opacity:1;fill-rule:evenodd;stroke:#000000;stroke-width:0.264583;stroke-linejoin:bevel;stroke-dasharray:3.175, 0.264583;stroke-dashoffset:0;stroke-opacity:1"
       d="m 42.517631,148.5 c 0,0 38.56524,61.97476 63.605479,61.86337 25.04024,-0.11139 62.872,-61.86337 62.872,-61.86337 l -1.60532,7.54345 -2.4937,14.30762 -1.80793,12.96725 -1.71442,5.04975 -2.68073,4.23929 -3.53452,3.68867 -4.32065,4.50938 -1.76735,1.84423 -6.088,6.35362 -7.85497,6.20329 -7.01286,4.80431 -3.2425,1.804 -7.10054,3.04842 -5.18108,0.97255 -5.48601,0.46769 -4.55833,0.24803 -4.450168,-1.08965 -5.735519,-1.83911 -5.735312,-1.83891 -9.133292,-5.20589 -13.933516,-12.09435 -6.836791,-7.66671 -4.509701,-5.30056 -2.400189,-3.70938 -2.088475,-4.86273 -4.519838,-25.87216 z"
       id="path4252"
       sodipodi:nodetypes="czcccccccccccccccccccccccccccc"
       inkscape:label="jaw" /><path
       style="display:inline;opacity:1;fill:#f4e3d7;fill-opacity:1;fill-rule:evenodd;stroke:#000000;stroke-width:0.264583;stroke-opacity:1"
       d="m 37.561398,105.14074 c -0.638879,-0.91121 -1.562174,-1.61995 -2.607556,-2.0016 -1.045381,-0.38164 -2.208131,-0.43448 -3.283818,-0.14922 -1.493727,0.39612 -2.769261,1.42082 -3.68243,2.66752 -0.913168,1.2467 -1.492253,2.70764 -1.928401,4.19017 -2.378284,8.08416 -0.693094,16.71968 0.49874,25.06171 0.530812,3.71533 0.962399,7.45538 1.870278,11.09697 0.703633,2.82234 1.729723,5.64086 3.615868,7.85517 0.941349,1.10513 2.11369,2.05075 3.487711,2.51927 1.374021,0.46853 2.939306,0.4144 4.230063,-0.24998 1.290758,-0.66438 2.238676,-1.91369 2.641839,-3.30829 0.403164,-1.3946 0.278805,-2.88014 0.113939,-4.32246 l -4.956233,-43.35926"
       id="rightEar"
       sodipodi:nodetypes="cssssssc"
       inkscape:original-d="m 37.561398,105.14074 c -1.963526,-0.71668 -3.927319,-1.43362 -5.891374,-2.15082 -1.964055,-0.7172 -3.74029,4.57206 -5.610831,6.85769 -1.870541,2.28563 0.332759,16.70807 0.49874,25.06171 0.165983,8.35364 1.247116,7.39825 1.870278,11.09697 0.62316,3.69873 2.410844,5.23705 3.615868,7.85517 1.205026,2.61812 10.91895,-1.46492 10.473552,-5.36146 l -4.956233,-43.35926"
       inkscape:path-effect="#path-effect3596" /><path
       id="neck"
       style="display:inline;opacity:1;fill:#f4e3d7;fill-opacity:1;fill-rule:evenodd;stroke:#000000;stroke-width:0.264583;stroke-opacity:1"
       d="m 155.15849,196.29603 -12.176,12.70723 -7.85497,6.20329 -7.01286,4.80431 -3.2425,1.804 -7.10054,3.04842 -5.18108,0.97255 -5.48597,0.46767 c 0,0 -1.82697,0.13027 -4.55837,0.24805 -2.18225,-0.53152 -2.993703,-0.62277 -4.450379,-1.08986 l -11.470618,-3.67781 -9.133292,-5.20589 -13.933517,-12.09435 -6.836792,-7.66671 c 0.03213,1.98658 0.15884,3.9719 0.379822,5.9464 1.659361,6.71539 1.398767,13.10497 1.403662,19.31252 0.03226,4.07837 -1.032231,8.18013 -3.191536,11.64012 13.925879,7.77411 31.435545,12.66742 47.30241,14.28285 1.47283,0.14995 2.94864,0.27175 4.42609,0.36587 v 0.008 c 0.0208,-0.001 0.0417,-0.003 0.0625,-0.004 0.0208,0.001 0.0417,0.003 0.0625,0.004 v -0.008 c 1.47745,-0.0941 2.95326,-0.21592 4.42609,-0.36587 15.86686,-1.61543 31.3928,-6.50874 45.31868,-14.28285 -2.49216,-2.86989 -1.52571,-6.09141 -2.07288,-9.85276 -0.2501,-6.51561 -1.56687,-13.21911 -0.67682,-19.02713 0.15037,-0.86765 0.30071,-1.7354 0.45165,-2.60295 z"
       sodipodi:nodetypes="cccccccccccccccccscccccsccccc"
       inkscape:label="neck" /><path
       style="display:inline;opacity:1;fill:#ffe6d5;fill-opacity:1;fill-rule:evenodd;stroke:#000000;stroke-width:0.264583;stroke-dasharray:3.175, 0.264583;stroke-dashoffset:0;stroke-opacity:1"
       d="m 36.087865,43.730066 c 10.528214,-2.814294 17.26373,-4.566118 23.314471,-6.050293 3.8372,-0.94122 7.254816,-1.909749 11.907371,-2.588974 3.18795,-0.465408 8.532404,-1.391275 13.697445,-1.737553 9.959583,-0.667716 20.149328,-0.544368 20.149328,-0.544368 0,0 0.26068,-11.457202 -0.15648,-23.505546 0,0 -56.130423,0.975823 -68.912135,34.426734 z"
       id="rightParietal"
       sodipodi:nodetypes="cssscsc" /><path
       style="display:inline;opacity:1;fill:#ffe6d5;fill-opacity:1;fill-rule:evenodd;stroke:#000000;stroke-width:0.264583;stroke-dasharray:3.175, 0.264583;stroke-dashoffset:0;stroke-opacity:1"
       d="m 173.53185,42.964466 c -10.03543,-3.083819 -15.29768,-4.79323 -21.34842,-6.277405 -3.8372,-0.94122 -7.96117,-2.033381 -12.61372,-2.712606 -3.18795,-0.465408 -8.94379,-1.174735 -14.11938,-1.278442 -10.17778,-0.20394 -20.29385,0.112865 -20.29385,0.112865 0,0 0.21274,-11.254589 -0.15648,-23.505546 0,0 55.31374,-0.9742858 68.53185,33.661134 z"
       id="rightParietal-3"
       sodipodi:nodetypes="cssscsc"
       inkscape:label="leftParietal" /><path
       style="display:inline;opacity:1;fill:#ffe6d5;fill-opacity:1;fill-rule:evenodd;stroke:#000000;stroke-width:0.286123;stroke-dasharray:3.43348, 0.286123;stroke-dashoffset:0;stroke-opacity:1"
       d="m 33.068612,63.774423 c 0,0 47.390764,22.383284 72.297018,22.499178 24.90625,0.115895 72.49857,-22.398517 72.49857,-22.398517 0,0 -0.22635,-4.993811 -1.11889,-10.282268 -0.78732,-4.665003 -2.92287,-9.425067 -3.21346,-10.62835 C 137.274,31.46078 132.30076,32.485604 105.15648,32.808878 77.773967,33.134989 75.215083,33.248274 36.087865,43.730066 c 0,0 -1.586316,2.205043 -2.522103,8.518353 -0.935787,6.31331 -0.49715,11.526004 -0.49715,11.526004 z"
       id="frontal"
       sodipodi:nodetypes="cccscsczc" /><path
       style="display:inline;opacity:1;fill:#ffe6d5;fill-opacity:1;fill-rule:evenodd;stroke:#000000;stroke-width:0.241471;stroke-dasharray:2.89765, 0.241471;stroke-dashoffset:0;stroke-opacity:1"
       d="m 33.068613,63.774423 c 0,0 12.969943,19.194231 14.081004,30.474715 1.075352,10.917922 -7.049612,33.100432 -7.049612,33.100432 l -2.222484,-19.44325 -0.316123,-2.76558 -1.768408,-8.839718 -0.84998,-4.03402 -0.997482,-9.133187 -0.815105,-15.346891 -0.06181,-4.012501"
       id="rightTemporal"
       sodipodi:nodetypes="cscccccccc" /><path
       style="display:inline;opacity:1;fill:#ffe6d5;fill-opacity:1;fill-rule:evenodd;stroke:#000000;stroke-width:0.250113;stroke-dasharray:3.00136, 0.250113;stroke-dashoffset:0;stroke-opacity:1"
       d="m 177.8642,63.875084 c 0,0 -12.61428,19.27458 -13.69972,30.886533 -1.08544,11.611953 8.05144,36.375973 8.05144,36.375973 l 1.06525,-7.66813 1.30919,-14.52582 3.12362,-22.138992 0.16791,-4.809569 -0.0473,-12.045618 0.0296,-6.074377"
       id="leftTemporal"
       sodipodi:nodetypes="czccccccc" /><path
       style="display:inline;opacity:1;fill:#000000;fill-rule:nonzero;stroke:#000000;stroke-width:0.285999;stroke-linecap:butt;stroke-linejoin:miter;stroke-dasharray:none;stroke-dashoffset:0;stroke-opacity:1;paint-order:normal"
       d="m 105.57714,94.858344 0.39545,44.972466"
       id="noseBridge" /><path
       style="display:inline;opacity:1;fill:#f4e3d7;fill-opacity:1;fill-rule:evenodd;stroke:#000000;stroke-width:0.264583;stroke-opacity:1"
       d="m 174.74569,107.84269 c 0.50681,-0.83451 1.27201,-1.50959 2.16319,-1.90842 0.89118,-0.39883 1.90443,-0.51965 2.8644,-0.34157 1.53486,0.28473 2.86184,1.31088 3.77121,2.57971 0.90936,1.26883 1.44226,2.76835 1.83963,4.27798 2.1419,8.1371 0.60923,16.7207 -0.49874,25.06171 -0.49432,3.72135 -0.90462,7.46925 -1.87028,11.09697 -0.74641,2.80406 -1.84356,5.55761 -3.61587,7.85517 -0.96933,1.2566 -2.16838,2.38128 -3.63225,2.99425 -0.73193,0.30649 -1.52188,0.48056 -2.31539,0.48235 -0.79351,0.002 -1.58836,-0.17049 -2.30414,-0.51299 -0.71579,-0.34251 -1.34914,-0.85439 -1.83809,-1.47936 -0.48896,-0.62497 -0.832,-1.35959 -1.0249,-2.1293 -0.38579,-1.53942 -0.1378,-3.15827 0.15702,-4.71767 l 3.77444,-19.96393 2.52977,-23.2949"
       id="rightEar-2"
       sodipodi:nodetypes="csssssscc"
       inkscape:label="leftEar"
       inkscape:original-d="m 174.74569,107.84269 c 1.96353,-0.71668 3.06354,-1.53279 5.02759,-2.24999 1.96406,-0.7172 3.74029,4.57206 5.61084,6.85769 1.87054,2.28563 -0.33276,16.70807 -0.49874,25.06171 -0.16599,8.35364 -1.24712,7.39825 -1.87028,11.09697 -0.62316,3.69873 -2.41085,5.23705 -3.61587,7.85517 -1.20503,2.61812 -11.68633,-1.50908 -10.95775,-5.36272 l 3.77444,-19.96393 2.52977,-23.2949"
       inkscape:path-effect="#path-effect3596-2" /><path
       d="m 89.664297,88.430005 -28.301115,5.642549 -8.022766,3.086117 15.957682,-0.264584 14.6358,0.617017 10.138916,3.703136 C 92.603387,96.952898 92.349402,92.597829 89.664297,88.430005 Z"
       style="display:inline;opacity:1;fill:#ffe6d5;stroke:#000000;stroke-width:0.265;stroke-dasharray:3.18, 0.265"
       id="rightEyebrow"
       inkscape:label="rightEyebrow" /><path
       id="face"
       style="display:inline;opacity:1;fill:#ffe6d5;stroke:#000000;stroke-width:0.265;stroke-dasharray:3.18, 0.265"
       d="m 33.787479,64.626161 c -0.02671,0.02756 0.197224,0.428526 0.498161,0.891419 0.300935,0.462891 0.506128,0.842301 0.455786,0.843359 -0.05034,0.0011 -0.02812,0.04314 0.04961,0.09353 0.234852,0.152214 1.681694,2.523499 1.610238,2.639116 -0.03655,0.05914 0.01067,0.136956 0.104903,0.173116 0.509863,0.195654 7.150835,12.663127 7.217647,13.550077 0.01037,0.137599 0.05691,0.250114 0.103353,0.250114 0.04644,0 0.321401,0.603287 0.610815,1.340487 0.289417,0.737198 0.598516,1.508892 0.687297,1.714624 0.364709,0.845137 0.929954,2.585178 0.870748,2.680973 -0.03496,0.05657 -0.0188,0.121702 0.03617,0.144694 0.110588,0.04627 0.613716,1.719042 0.781348,2.597774 0.05887,0.308596 0.197972,1.038192 0.309025,1.62109 0.111051,0.582901 0.182339,1.270393 0.15813,1.527555 -0.02421,0.257161 -5.32e-4,0.467672 0.05271,0.467672 0.05325,0 0.09663,0.673113 0.09663,1.496033 0,0.82292 -0.0421,1.497054 -0.09353,1.497583 -0.05143,6.27e-4 -0.102271,0.620111 -0.113172,1.37666 -0.0109,0.756553 -0.0614,1.471363 -0.112138,1.588533 -0.05073,0.11718 -0.08179,0.32535 -0.06925,0.4625 0.02434,0.26641 -0.814409,5.35907 -0.93431,5.67304 -0.03928,0.10286 -0.09488,0.32724 -0.123507,0.49868 -0.169664,1.01606 -0.603593,2.74298 -0.689363,2.74298 -0.05558,0 -0.07195,0.0763 -0.03617,0.1695 0.06223,0.16217 -0.506449,2.61695 -0.666109,2.87528 -0.0423,0.0684 -0.09005,0.24977 -0.106453,0.40359 -0.05931,0.55624 -0.708386,2.66134 -0.820622,2.66134 -0.06326,0 -0.07977,0.0576 -0.03617,0.12815 0.103116,0.16685 -0.684296,2.86443 -0.836124,2.86443 -0.06374,0 -0.08044,0.0572 -0.03721,0.12712 0.08719,0.14108 -0.637206,2.58739 -0.839226,2.83394 -0.07025,0.0857 -0.09654,0.15606 -0.05839,0.15606 0.06001,0 -0.643293,2.22073 -0.868681,2.74299 -0.04439,0.10287 -0.09398,0.24725 -0.110071,0.32091 -0.01609,0.0737 -0.154315,0.52284 -0.307474,0.99839 l -0.278536,0.86454 1.201993,10.50479 1.201994,10.50478 0.82734,1.27693 c 0.455121,0.70231 0.828361,1.34727 0.82889,1.43298 5.87e-4,0.0857 0.04989,0.15555 0.109554,0.15555 0.147873,0 1.851438,2.63181 1.77922,2.74867 -0.03168,0.0513 0.02331,0.12421 0.122473,0.16226 0.211521,0.0812 1.813326,2.438 1.813326,2.66806 0,0.0863 0.05073,0.15658 0.112654,0.15658 0.06193,0 0.522671,0.6033 1.02371,1.34048 0.501039,0.7372 1.346951,1.95075 1.879989,2.69648 0.533038,0.74572 0.938869,1.40498 0.901754,1.46503 -0.03711,0.0601 0.0058,0.11106 0.0956,0.11369 0.08977,0.003 0.499597,0.48884 0.911056,1.08055 1.238837,1.78156 2.638472,3.67103 5.380033,7.26519 1.018622,1.33539 1.837706,2.47163 1.820561,2.52491 -0.01714,0.0533 0.02247,0.0971 0.08785,0.0971 0.157276,0 2.072086,2.47384 2.031917,2.62516 -0.01714,0.0646 0.03882,0.12054 0.12454,0.12403 0.08572,0.004 0.577083,0.54088 1.091406,1.19424 0.514326,0.65336 0.992245,1.25394 1.062468,1.33429 0.07022,0.0804 0.835974,0.98724 1.701188,2.01589 3.313997,3.94001 5.894725,6.82816 8.385535,9.38289 0.752181,0.77149 1.331761,1.4025 1.287776,1.4025 -0.04398,0 0.464164,0.5171 1.12913,1.14877 0.664969,0.63166 1.226634,1.21702 1.247986,1.30121 0.02136,0.0842 0.116106,0.17089 0.21084,0.19224 0.225385,0.0508 2.306319,2.08648 2.306319,2.25619 0,0.0718 0.0349,0.0953 0.07803,0.0522 0.09396,-0.094 2.491686,2.04753 2.446879,2.1854 -0.01714,0.0527 0.03882,0.0971 0.12454,0.0987 0.08572,0.002 0.66077,0.42518 1.277958,0.94155 1.599929,1.33857 3.896434,3.08944 5.454964,4.15892 0.7372,0.50586 1.340487,0.95794 1.340487,1.00459 0,0.0466 0.06982,0.086 0.155546,0.0873 0.18859,0.003 2.736517,1.52662 2.865975,1.71411 0.05038,0.073 0.09248,0.0902 0.09353,0.0382 0.0011,-0.052 0.689044,0.2533 1.529106,0.67799 0.840065,0.4247 1.583518,0.78595 1.652096,0.80305 0.160343,0.04 2.558903,0.90235 2.805513,1.00873 0.10287,0.0444 0.27127,0.094 0.37414,0.11007 0.10287,0.0161 0.72001,0.14535 1.37149,0.28732 0.65148,0.14196 1.31073,0.25913 1.46503,0.26045 0.1543,0.001 0.2806,0.0612 0.2806,0.13384 0,0.0727 0.0464,0.10342 0.10335,0.0682 0.0569,-0.0352 0.83715,-0.0725 1.73323,-0.0827 1.50946,-0.0172 2.94593,-0.21548 4.32376,-0.59686 0.26787,-0.0741 0.54063,-0.10143 0.60617,-0.061 0.0655,0.0405 0.15468,0.0214 0.19844,-0.0424 0.0809,-0.11795 2.54333,-1.03841 2.88509,-1.07849 0.10286,-0.0121 0.21531,-0.0573 0.2496,-0.10025 0.12643,-0.15831 2.89638,-1.49351 2.96209,-1.42782 0.0374,0.0374 0.12981,-0.0141 0.20516,-0.11473 0.0754,-0.10066 0.72652,-0.53453 1.44745,-0.96428 0.72094,-0.42974 1.92287,-1.20237 2.67064,-1.71669 0.74776,-0.51433 1.40635,-0.92097 1.46348,-0.90382 0.0571,0.0171 0.10387,-0.0217 0.10387,-0.0863 0,-0.14714 2.50723,-2.07598 2.64325,-2.03347 0.0549,0.0171 0.0997,-0.0202 0.0997,-0.0827 0,-0.14685 2.31673,-2.13062 2.48822,-2.13062 0.0716,0 0.13023,-0.0475 0.13023,-0.10542 0,-0.0579 0.74347,-0.78277 1.65209,-1.61127 0.90864,-0.82851 2.52114,-2.38033 3.58377,-3.44837 1.06261,-1.06803 2.00273,-1.942 2.08876,-1.942 0.086,0 0.14219,-0.0443 0.12505,-0.0987 -0.0496,-0.15723 2.06476,-2.39469 2.26291,-2.39469 0.0982,0 0.14265,-0.0366 0.0982,-0.0811 -0.0808,-0.0808 0.0419,-0.22981 1.73116,-2.10116 0.49521,-0.54861 1.27708,-1.43224 1.73788,-1.96371 0.46081,-0.53147 0.88753,-0.96635 0.94826,-0.96635 0.0607,0 0.11059,-0.0615 0.11059,-0.13694 0,-0.17611 1.97942,-2.4815 2.13062,-2.4815 0.0627,0 0.11369,-0.0665 0.11369,-0.1478 0,-0.0813 0.21534,-0.40374 0.47852,-0.71675 0.26317,-0.31301 1.19165,-1.4531 2.06344,-2.53318 0.8718,-1.08006 1.63865,-1.9637 1.70377,-1.9637 0.0651,0 0.11834,-0.0759 0.11834,-0.16847 0,-0.20804 1.84065,-2.57452 2.00246,-2.57452 0.0644,0 0.10291,-0.0491 0.0858,-0.10903 -0.0439,-0.15343 1.81014,-2.62123 1.97455,-2.62827 0.0743,-0.003 0.13488,-0.0791 0.13488,-0.16846 0,-0.20169 1.7764,-2.58021 1.92701,-2.58021 0.0602,0 0.10956,-0.0739 0.10956,-0.16381 0,-0.21099 1.72478,-2.57969 1.87843,-2.57969 0.0641,0 0.11628,-0.0742 0.11628,-0.16485 0,-0.19153 1.69863,-2.62016 1.87585,-2.682 0.0655,-0.0229 0.11937,-0.0962 0.11937,-0.1633 0,-0.13729 3.44847,-5.21178 3.67368,-5.40587 0.0796,-0.0686 0.18131,-0.22187 0.22583,-0.34055 0.11439,-0.30492 1.60704,-2.51861 1.73219,-2.56883 0.057,-0.0229 0.10387,-0.0943 0.10387,-0.15917 0,-0.16046 1.62198,-2.65627 1.7601,-2.70836 0.0606,-0.0229 0.11007,-0.10305 0.11007,-0.17828 0,-0.0752 0.18652,-0.51947 0.50901,-0.91829 l 1.09606,-1.35548 1.62367,-8.91521 1.59732,-8.44755 -1.02164,-2.30115 c -0.11533,-0.32283 -0.1739,-0.64579 -0.12971,-0.71727 0.0442,-0.0715 0.0251,-0.12971 -0.0429,-0.12971 -0.068,0 -0.33196,-0.65925 -0.58653,-1.46503 -0.25457,-0.80576 -0.50942,-1.57747 -0.56637,-1.71462 -0.0999,-0.24068 -0.45265,-1.36635 -1.24954,-3.98994 -0.20829,-0.68577 -0.4292,-1.40756 -0.49092,-1.60403 -0.0616,-0.19646 -0.0846,-0.40197 -0.0506,-0.45682 0.0339,-0.0548 0.0149,-0.11861 -0.0424,-0.1416 -0.0992,-0.0399 -0.80031,-2.44497 -0.82992,-2.84685 -0.008,-0.10555 -0.0497,-0.24922 -0.093,-0.31936 -0.16105,-0.26058 -0.73085,-2.71456 -0.66818,-2.87786 0.0358,-0.0932 0.0152,-0.1695 -0.046,-0.1695 -0.0612,0 -0.26143,-0.65925 -0.44493,-1.46503 -0.18351,-0.80578 -0.4376,-1.91427 -0.56483,-2.46289 -0.12722,-0.54861 -0.26231,-1.1935 -0.29972,-1.43351 -0.0374,-0.24002 -0.0983,-0.60507 -0.13539,-0.8108 -0.20641,-1.1457 -0.534,-3.14301 -0.54209,-3.30419 -0.005,-0.10286 -0.0649,-0.52337 -0.13281,-0.93483 -0.3871,-2.345275 -0.43032,-6.883778 -0.0842,-8.852687 0.21295,-1.211677 0.472,-2.353425 0.70745,-3.117123 0.0634,-0.205732 0.26155,-0.878844 0.44028,-1.496032 0.17874,-0.617193 0.39703,-1.29082 0.48473,-1.49655 0.0877,-0.205731 0.36838,-0.963048 0.62425,-1.683101 0.25586,-0.720057 0.54284,-1.371066 0.63769,-1.446424 0.0948,-0.07536 0.14048,-0.169042 0.10128,-0.208256 -0.0987,-0.09872 1.08138,-2.833935 1.22267,-2.833935 0.0628,0 0.0827,-0.05152 0.0439,-0.114205 -0.0848,-0.137239 2.52744,-5.5191 2.78898,-5.745903 0.0395,-0.03429 0.089,-0.14239 0.11007,-0.239778 0.0317,-0.146642 0.99232,-1.958134 1.39371,-2.628264 0.0616,-0.102865 0.42529,-0.748254 0.80822,-1.434021 0.38295,-0.685766 0.74781,-1.33064 0.81081,-1.433504 0.063,-0.102865 0.4368,-0.739798 0.83044,-1.415417 0.39365,-0.675618 0.78917,-1.256916 0.87901,-1.291394 0.0898,-0.03448 0.13495,-0.108701 0.10025,-0.164848 -0.0347,-0.05614 0.1695,-0.472732 0.45372,-0.926042 0.28423,-0.453311 0.48766,-0.853344 0.45217,-0.888835 -0.0355,-0.03549 -0.56948,0.162976 -1.18649,0.4408 -0.61702,0.277828 -1.21247,0.504879 -1.32343,0.504879 -0.11094,0 -0.20154,0.04707 -0.20154,0.104387 0,0.09731 -2.70568,1.324573 -3.11712,1.413867 -0.10286,0.02232 -0.21531,0.07519 -0.2496,0.117305 -0.11271,0.138437 -3.03674,1.357023 -3.25613,1.357023 -0.11792,0 -0.23294,0.05074 -0.2558,0.112655 -0.0601,0.162637 -3.07854,1.409153 -3.21221,1.326534 -0.0617,-0.03815 -0.13245,-0.0088 -0.15709,0.06511 -0.052,0.156178 -2.91411,1.363741 -3.23236,1.363741 -0.11782,0 -0.23294,0.04577 -0.2558,0.101803 -0.035,0.08584 -2.78069,1.238791 -3.15898,1.326534 -0.0686,0.01591 -0.37716,0.140922 -0.68575,0.278019 -0.30861,0.137093 -1.06591,0.43317 -1.6831,0.657841 -0.61719,0.224676 -1.2903,0.481476 -1.49603,0.570508 -1.16084,0.502365 -3.08697,1.174668 -3.18741,1.112594 -0.0643,-0.03973 -0.11678,-0.02036 -0.11678,0.04289 0,0.138658 -3.22415,1.330609 -3.32538,1.229382 -0.039,-0.03904 -0.14429,0.0022 -0.2341,0.09198 -0.2171,0.217088 -3.15777,1.221215 -3.30677,1.12913 -0.0641,-0.03961 -0.11627,-0.01734 -0.11627,0.04961 0,0.123605 -3.02381,1.183239 -3.36672,1.179773 -0.10286,-0.001 -0.21479,0.03938 -0.24908,0.08992 -0.0934,0.137708 -3.25273,1.125216 -3.36931,1.053165 -0.0554,-0.03425 -0.11963,-0.01231 -0.14262,0.04858 -0.0445,0.117842 -3.02397,1.055876 -3.34347,1.052649 -0.10408,-0.0011 -0.21737,0.03514 -0.25166,0.08061 -0.0639,0.0847 -2.8603,0.902605 -3.22616,0.943612 -0.11158,0.01251 -0.34326,0.07785 -0.5147,0.145211 -0.17145,0.06736 -0.92875,0.276556 -1.6831,0.464571 -0.75434,0.188018 -1.65182,0.420276 -1.99471,0.516248 -1.2944,0.362286 -2.87602,0.688438 -3.08043,0.635103 -0.11672,-0.03045 -0.2289,-0.0047 -0.2496,0.05736 -0.0317,0.09507 -1.97698,0.556497 -3.27835,0.77773 -0.20573,0.03498 -0.9913,0.177514 -1.74563,0.316777 -0.75434,0.139259 -1.59586,0.283807 -1.87017,0.32091 -3.24902,0.439467 -3.87159,0.504828 -3.90881,0.412378 -0.0238,-0.05914 -0.10845,-0.05318 -0.1881,0.01292 -0.38413,0.318798 -7.31014,0.544403 -7.31376,0.238229 -0.001,-0.110754 -0.0305,-0.118319 -0.0935,-0.02325 -0.0933,0.140541 -3.11363,-3.88e-4 -3.52072,-0.164331 -0.102867,-0.04144 -0.238515,-0.06342 -0.30179,-0.04858 -0.256249,0.06008 -3.43855,-0.411459 -3.43855,-0.509529 0,-0.05815 -0.126304,-0.07722 -0.280603,-0.04238 -0.154297,0.03486 -0.981957,-0.07547 -1.839164,-0.244946 -0.857208,-0.169471 -1.747933,-0.33841 -1.979724,-0.375688 -0.231796,-0.03728 -1.045593,-0.208166 -1.808159,-0.379822 -0.762566,-0.171654 -1.8917,-0.422637 -2.508891,-0.557588 -0.617188,-0.134953 -1.430469,-0.333957 -1.807641,-0.442351 -0.377171,-0.108395 -0.925154,-0.247655 -1.217497,-0.309025 -0.97519,-0.204729 -2.957499,-0.76763 -3.095418,-0.879016 -0.07489,-0.06049 -0.160709,-0.08527 -0.190686,-0.05529 -0.09161,0.09161 -3.406762,-0.908708 -3.450952,-1.04128 -0.02273,-0.06819 -0.117051,-0.09482 -0.20929,-0.05943 -0.191357,0.07343 -3.222838,-0.829813 -3.286621,-0.979268 -0.023,-0.05391 -0.08596,-0.07083 -0.139526,-0.03772 -0.0857,0.05296 -2.64774,-0.750255 -3.309876,-1.037663 -0.137155,-0.05953 -1.020775,-0.352416 -1.963704,-0.650606 -0.942927,-0.298191 -1.714624,-0.574334 -1.714624,-0.613916 0,-0.03958 -0.09807,-0.07632 -0.218075,-0.08113 -0.330544,-0.0133 -3.204636,-1.059933 -3.252515,-1.184424 -0.023,-0.0598 -0.08637,-0.08104 -0.140559,-0.04754 -0.113866,0.07037 -3.125135,-1.013786 -3.302641,-1.189075 -0.06515,-0.06433 -0.202134,-0.117305 -0.304374,-0.117305 -0.315032,0 -3.255099,-1.147257 -3.255099,-1.270207 0,-0.06365 -0.05138,-0.0845 -0.113688,-0.04599 -0.14991,0.09265 -3.377572,-1.172537 -3.377572,-1.32395 0,-0.06459 -0.05284,-0.0848 -0.117305,-0.04496 -0.149752,0.09255 -3.016914,-1.034683 -3.199288,-1.257804 -0.07536,-0.0922 -0.168153,-0.136742 -0.206189,-0.0987 -0.0843,0.0843 -3.256046,-1.201411 -3.314526,-1.343587 -0.02286,-0.05558 -0.127383,-0.100769 -0.232544,-0.100769 -0.292195,0 -2.94905,-1.133433 -3.10472,-1.324467 -0.07536,-0.09247 -0.167888,-0.136476 -0.206189,-0.09819 -0.09467,0.09467 -3.112718,-1.191659 -3.284554,-1.399915 -0.07536,-0.09132 -0.167459,-0.13588 -0.204122,-0.09922 -0.09068,0.09069 -2.990881,-1.191695 -3.162598,-1.398364 -0.07536,-0.09069 -0.168664,-0.133121 -0.207222,-0.09457 -0.03856,0.03856 -0.5808,-0.167278 -1.205095,-0.457336 -0.624305,-0.289872 -1.156693,-0.504345 -1.1834,-0.476786 z m 55.86429,24.017656 c 2.685102,4.167819 2.939091,8.522897 4.408517,12.784233 l 1.3224,10.05107 -0.08785,10.09499 -1.322917,10.09499 -3.217892,11.19673 -1.190108,1.54616 c 0,0 -1.255402,2.91269 -1.108459,4.28604 0.146942,1.37337 1.990059,3.95428 1.990059,3.95428 l -2.156974,8.90385 c 0,0 -24.608189,-0.89806 -29.324825,-7.73027 -4.716636,-6.83223 2.034501,-19.3797 2.034501,-19.3797 l -7.670333,-37.073707 8.022766,-3.086117 z m 31.468361,0 28.30111,5.642549 8.02328,3.086117 -7.67033,37.073707 c 0,0 6.75114,12.54747 2.0345,19.3797 -4.71663,6.83221 -29.32482,7.73027 -29.32482,7.73027 l -2.15697,-8.90385 c 0,0 1.84312,-2.58091 1.99006,-3.95428 0.14695,-1.37335 -1.10846,-4.28604 -1.10846,-4.28604 l -1.19011,-1.54616 -3.21841,-11.19673 -1.3224,-10.09499 -0.0878,-10.09499 1.3224,-10.05107 c 1.46943,-4.261336 1.7229,-8.616414 4.408,-12.784233 z"
       inkscape:label="face" /><path
       d="m 149.78672,134.23238 -23.67245,5.24568 -4.89324,4.72012 c 0,0 1.25541,2.91268 1.10846,4.28604 -0.14694,1.37337 -1.99006,3.95428 -1.99006,3.95428 l 2.15697,8.90385 c 0,0 24.60818,-0.89805 29.32482,-7.73027 4.71664,-6.83223 -2.0345,-19.3797 -2.0345,-19.3797 z"
       style="display:inline;opacity:1;fill:#ffe6d5;stroke:#000000;stroke-width:0.265;stroke-dasharray:3.18, 0.265"
       id="leftInfraorbital"
       sodipodi:insensitive="true"
       inkscape:label="leftInfraorbital" /><path
       d="m 157.45705,97.158669 -15.9582,-0.264584 -14.63527,0.617017 -10.13892,3.703138 -1.3224,10.05107 0.0879,10.09499 1.3224,10.09499 3.21841,11.19673 1.19011,1.54616 4.89324,-4.72012 23.67245,-5.24568 z"
       style="display:inline;opacity:1;fill:#ffe6d5;stroke:#000000;stroke-width:0.265;stroke-dasharray:3.18, 0.265"
       id="leftOrbital"
       inkscape:label="leftOrbital" /><path
       d="m 121.13266,88.430003 c -2.6851,4.167824 -2.93857,8.522893 -4.408,12.784237 l 10.13892,-3.703138 14.63527,-0.617017 15.9582,0.264584 -8.02328,-3.086117 z"
       style="display:inline;opacity:1;fill:#ffe6d5;stroke:#000000;stroke-width:0.265;stroke-dasharray:3.18, 0.265"
       id="leftEyebrow"
       inkscape:label="leftEyebrow" /><path
       d="m 89.576448,144.19818 -4.893241,-4.72012 -23.672457,-5.24568 c 0,0 -6.751142,12.54747 -2.034501,19.3797 4.716641,6.83222 29.324825,7.73027 29.324825,7.73027 l 2.156974,-8.90385 c 0,0 -1.843117,-2.58091 -1.990059,-3.95428 -0.146943,-1.37336 1.108459,-4.28604 1.108459,-4.28604 z"
       style="display:inline;opacity:1;fill:#ffe6d5;stroke:#000000;stroke-width:0.265;stroke-dasharray:3.18, 0.265"
       id="rightInfraorbital"
       inkscape:label="rightInfraorbital" /><path
       d="m 94.072815,101.21424 -10.138916,-3.703138 -14.6358,-0.617017 -15.957682,0.264584 7.670333,37.073711 23.672457,5.24568 4.893241,4.72012 1.190108,-1.54616 3.217892,-11.19673 1.322917,-10.09499 0.08785,-10.09499 z"
       style="display:inline;opacity:1;fill:#ffe6d5;stroke:#000000;stroke-width:0.265;stroke-dasharray:3.18, 0.265"
       id="rightOrbital"
       inkscape:label="rightOrbital" /></g></svg>
