<?xml version="1.0" encoding="UTF-8" standalone="no"?>
<!-- Created with Inkscape (http://www.inkscape.org/) -->

<svg
   width="210mm"
   height="297mm"
   viewBox="0 0 210 297"
   version="1.1"
   id="svg5"
   xml:space="preserve"
   xmlns="http://www.w3.org/2000/svg"
   xmlns:svg="http://www.w3.org/2000/svg"><defs
     id="defs2" /><g
     id="layer1"
     style="display:inline"><path
       style="display:inline;opacity:0.5;fill:#2b1100;stroke:#000000;stroke-width:0.264583"
       d="m 89.664523,88.430202 c 2.685108,4.167829 2.938856,8.522685 4.408284,12.784028 L 83.933751,97.511271 69.298245,96.894109 53.340251,97.158608 61.36333,94.072807 Z"
       id="rightEyebrow" /><path
       style="display:inline;opacity:0.5;fill:none;fill-opacity:1;fill-rule:evenodd;stroke:#000000;stroke-width:0.264583;stroke-opacity:1"
       d="m 42.517631,148.5 c 0,0 38.56524,61.97476 63.605479,61.86337 25.04024,-0.11139 62.872,-61.86337 62.872,-61.86337 l -1.60532,7.54345 -2.4937,14.30762 -1.80793,12.96725 -1.71442,5.04975 -2.68073,4.23929 -3.53452,3.68867 -4.32065,4.50938 -1.76735,1.84423 -6.088,6.35362 -7.85497,6.20329 -7.01286,4.80431 -3.2425,1.804 -7.10054,3.04842 -5.18108,0.97255 -5.48601,0.46769 -4.55833,0.24803 -4.450168,-1.08965 -5.735519,-1.83911 -5.735312,-1.83891 -9.133292,-5.20589 -13.933516,-12.09435 -6.836791,-7.66671 -4.509701,-5.30056 -2.400189,-3.70938 -2.088475,-4.86273 -4.519838,-25.87216 z"
       id="path4252" /><path
       style="display:inline;opacity:0.5;fill:#2b1100;stroke:#000000;stroke-width:0.264583"
       d="m 121.4001,87.823487 -4.40829,12.784023 10.13906,-3.702954 14.63551,-0.617162 15.95799,0.264499 -8.02308,-3.085801 z"
       id="leftEyebrow" /><path
       style="display:inline;opacity:0.5;fill:none;stroke:#000000;stroke-width:0.264583"
       d="m 94.072807,101.21423 1.322485,10.05089 -0.08816,10.09497 -1.322486,10.09498 -3.218047,11.19704 -1.190239,1.54616 -4.893196,-4.72012 -23.672493,-5.24586 -7.670416,-37.073682 15.957994,-0.264499 14.635506,0.617162 z"
       id="rightOrbital" /><path
       style="display:inline;opacity:0.5;fill:none;fill-opacity:1;fill-rule:evenodd;stroke:#000000;stroke-width:0.264583;stroke-opacity:1"
       d="m 61.01067,134.23229 c 0,0 -6.751247,12.54757 -2.034601,19.3798 4.716646,6.83223 29.324932,7.73048 29.324932,7.73048 l 2.157013,-8.90406 c 0,0 -1.843088,-2.58099 -1.99003,-3.95436 -0.146943,-1.37337 1.108375,-4.28588 1.108375,-4.28588 l -4.893197,-4.72012 -23.672492,-5.24586"
       id="rightInfraorbital" /><path
       style="display:inline;opacity:0.5;fill:none;fill-opacity:1;fill-rule:evenodd;stroke:#000000;stroke-width:0.264583;stroke-opacity:1"
       d="m 150.14787,133.32046 c 0,0 6.75125,12.54757 2.0346,19.3798 -4.71665,6.83222 -29.32493,7.73047 -29.32493,7.73047 l -2.15701,-8.90405 c 0,0 1.84308,-2.58099 1.99003,-3.95436 0.14694,-1.37337 -1.10838,-4.28588 -1.10838,-4.28588 l 4.8932,-4.72012 23.67249,-5.24586"
       id="path4313-2" /><path
       style="display:inline;opacity:0.5;fill:none;stroke:#000000;stroke-width:0.264583"
       d="m 116.99178,100.60752 -1.32248,10.05089 0.0882,10.09497 1.32248,10.09498 3.21805,11.19704 1.19024,1.54616 4.8932,-4.72012 23.67249,-5.24586 7.67041,-37.073687 -15.95799,-0.264499 -14.63551,0.617162 z"
       id="leftOrbital" /><path
       id="sinus"
       style="display:inline;opacity:0.5;fill:none;stroke:#000000;stroke-width:0.264583"
       d="m 105,105.35802 0.73238,38.84025 M 121.4001,87.823486 c -0.64689,2.159618 -1.38243,4.292679 -2.20415,6.392011 -0.82255,2.101456 -1.73619,4.184361 -2.20414,6.392013 -0.3505,1.65355 -0.44464,3.3491 -0.66127,5.02545 -0.21661,1.67618 -0.55642,3.33859 -0.66124,5.02545 -0.10439,1.67989 0.0255,3.36445 0.0441,5.04748 0.0186,1.68288 -0.074,3.36866 0.0441,5.04749 0.11914,1.69308 0.45155,3.36323 0.66124,5.04749 0.20975,1.68473 0.29753,3.38917 0.66124,5.04749 0.41614,1.89737 1.1868,3.70249 1.60902,5.59852 0.21256,0.95453 0.33566,1.92721 0.54737,2.88192 0.21172,0.95472 0.51843,1.90345 1.06166,2.7166 0.36143,0.54102 0.82014,1.01103 1.19024,1.54616 0.86327,1.2482 1.20504,2.84554 0.92809,4.3377 -0.27695,1.49216 -1.16915,2.86047 -2.42284,3.71575 M 89.664523,88.430202 c 1.962161,4.06958 3.445059,8.369987 4.408284,12.784028 0.721255,3.3052 1.151551,6.67223 1.322485,10.05089 0.170106,3.36229 0.08389,6.73278 -0.08816,10.09497 -0.173774,3.39589 -0.439043,6.81142 -1.322485,10.09498 -0.504643,1.87565 -1.208479,3.69792 -1.609024,5.59852 -0.201693,0.95704 -0.32546,1.92956 -0.540265,2.88374 -0.214804,0.95418 -0.526611,1.90073 -1.068759,2.71478 -0.360649,0.54153 -0.816063,1.01389 -1.190238,1.54616 -0.867203,1.23361 -1.2688,2.78651 -1.108377,4.28588 0.160423,1.49936 0.88147,2.93214 1.990032,3.95436" /><path
       style="display:inline;opacity:0.5;fill:#ffe6d5;fill-opacity:1;fill-rule:evenodd;stroke:#000000;stroke-width:0.264583;stroke-opacity:1"
       d="m 37.561398,105.14074 c -0.638879,-0.91121 -1.562174,-1.61995 -2.607556,-2.0016 -1.045381,-0.38164 -2.208131,-0.43448 -3.283818,-0.14922 -1.493727,0.39612 -2.769261,1.42082 -3.68243,2.66752 -0.913168,1.2467 -1.492253,2.70764 -1.928401,4.19017 -2.378284,8.08416 -0.693094,16.71968 0.49874,25.06171 0.530812,3.71533 0.962399,7.45538 1.870278,11.09697 0.703633,2.82234 1.729723,5.64086 3.615868,7.85517 0.941349,1.10513 2.11369,2.05075 3.487711,2.51927 1.374021,0.46853 2.939306,0.4144 4.230063,-0.24998 1.290758,-0.66438 2.238676,-1.91369 2.641839,-3.30829 0.403164,-1.3946 0.278805,-2.88014 0.113939,-4.32246 l -4.956233,-43.35926"
       id="rightEar" /><path
       style="display:inline;opacity:0.5;fill:#ffe6d5;fill-opacity:1;fill-rule:evenodd;stroke:#000000;stroke-width:0.264583;stroke-opacity:1"
       d="m 175.21378,104.62641 c 0.35027,-1.21435 1.14896,-2.29385 2.20777,-2.98397 1.05881,-0.69012 2.36886,-0.98508 3.62127,-0.81533 1.027,0.1392 2.00245,0.58123 2.82711,1.20895 0.82466,0.62773 1.50213,1.43687 2.03561,2.3254 1.37976,2.29803 1.77975,5.05158 1.87028,7.73048 0.2834,8.3858 -2.16721,16.60038 -3.11713,24.93702 -0.34922,3.06483 -0.49779,6.16498 -1.19476,9.16987 -0.69697,3.00489 -2.00321,5.96801 -4.29139,8.03668 -1.56063,1.41092 -3.5407,2.35196 -5.62024,2.67104 -2.07953,0.31908 -4.25065,0.015 -6.16251,-0.8631"
       id="leftEar" /><path
       id="neck"
       style="display:inline;opacity:0.5;fill:#ffe6d5;fill-opacity:1;fill-rule:evenodd;stroke:#000000;stroke-width:0.264583;stroke-opacity:1"
       d="m 155.15849,196.29603 -12.176,12.70723 -7.85497,6.20329 -7.01286,4.80431 -3.2425,1.804 -7.10054,3.04842 -5.18108,0.97255 -5.48597,0.46767 c 0,0 -1.82697,0.13027 -4.55837,0.24805 -2.18225,-0.53152 -2.993703,-0.62277 -4.450379,-1.08986 l -11.470618,-3.67781 -9.133292,-5.20589 -13.933517,-12.09435 -6.836792,-7.66671 c 0.03213,1.98658 0.15884,3.9719 0.379822,5.9464 1.659361,6.71539 1.398767,13.10497 1.403662,19.31252 0.03226,4.07837 -1.032231,8.18013 -3.191536,11.64012 13.925879,7.77411 31.435545,12.66742 47.30241,14.28285 1.47283,0.14995 2.94864,0.27175 4.42609,0.36587 v 0.008 c 0.0208,-0.001 0.0417,-0.003 0.0625,-0.004 0.0208,0.001 0.0417,0.003 0.0625,0.004 v -0.008 c 1.47745,-0.0941 2.95326,-0.21592 4.42609,-0.36587 15.86686,-1.61543 31.3928,-6.50874 45.31868,-14.28285 -2.49216,-2.86989 -1.52571,-6.09141 -2.07288,-9.85276 -0.2501,-6.51561 -1.56687,-13.21911 -0.67682,-19.02713 0.15037,-0.86765 0.30071,-1.7354 0.45165,-2.60295 z" /><path
       style="display:inline;opacity:0.5;fill:none;fill-opacity:1;fill-rule:evenodd;stroke:#000000;stroke-width:0.264583;stroke-opacity:1"
       d="m 36.087865,43.730066 c 10.528214,-2.814294 17.26373,-4.566118 23.314471,-6.050293 3.8372,-0.94122 7.254816,-1.909749 11.907371,-2.588974 3.18795,-0.465408 8.532404,-1.391275 13.697445,-1.737553 9.959583,-0.667716 20.149328,-0.544368 20.149328,-0.544368 0,0 0.26068,-11.457202 -0.15648,-23.505546 0,0 -56.130423,0.975823 -68.912135,34.426734 z"
       id="rightParietal" /><path
       style="display:inline;opacity:0.5;fill:none;fill-opacity:1;fill-rule:evenodd;stroke:#000000;stroke-width:0.264583;stroke-opacity:1"
       d="m 173.53185,42.964466 c -10.03543,-3.083819 -15.29768,-4.79323 -21.34842,-6.277405 -3.8372,-0.94122 -7.96117,-2.033381 -12.61372,-2.712606 -3.18795,-0.465408 -8.94379,-1.174735 -14.11938,-1.278442 -10.17778,-0.20394 -20.29385,0.112865 -20.29385,0.112865 0,0 0.21274,-11.254589 -0.15648,-23.505546 0,0 55.31374,-0.9742858 68.53185,33.661134 z"
       id="rightParietal-3" /><path
       style="display:inline;opacity:0.5;fill:none;fill-opacity:1;fill-rule:evenodd;stroke:#000000;stroke-width:0.286123;stroke-opacity:1"
       d="m 33.068612,63.774423 c 0,0 47.390764,22.383284 72.297018,22.499178 24.90625,0.115895 72.49857,-22.398517 72.49857,-22.398517 0,0 -0.22635,-4.993811 -1.11889,-10.282268 -0.78732,-4.665003 -2.92287,-9.425067 -3.21346,-10.62835 C 137.274,31.46078 132.30076,32.485604 105.15648,32.808878 77.773967,33.134989 75.215083,33.248274 36.087865,43.730066 c 0,0 -1.586316,2.205043 -2.522103,8.518353 -0.935787,6.31331 -0.49715,11.526004 -0.49715,11.526004 z"
       id="frontal" /><path
       style="display:inline;opacity:0.5;fill:none;fill-opacity:1;fill-rule:evenodd;stroke:#000000;stroke-width:0.241471;stroke-opacity:1"
       d="m 34.020232,64.106645 c 0,0 12.018324,18.862009 13.129385,30.142493 1.075352,10.917922 -7.049612,33.100432 -7.049612,33.100432 l -2.222484,-19.44325 -0.316123,-2.76558 -1.768408,-8.839718 -0.84998,-4.03402 -0.997482,-9.133187 -0.815105,-15.346891 -0.06181,-4.012501"
       id="rightTemporal" /><path
       style="display:inline;opacity:0.5;fill:none;fill-opacity:1;fill-rule:evenodd;stroke:#000000;stroke-width:0.250113;stroke-opacity:1"
       d="m 177.8642,63.875084 c 0,0 -12.61428,19.27458 -13.69972,30.886533 -1.08544,11.611953 8.05144,36.375973 8.05144,36.375973 l 1.06525,-7.66813 1.30919,-14.52582 3.12362,-22.138992 0.16791,-4.809569 -0.0473,-12.045618 0.0296,-6.074377"
       id="leftTemporal" /></g></svg>
