<?xml version="1.0" encoding="UTF-8" standalone="no"?>
<!-- Created with Inkscape (http://www.inkscape.org/) -->

<svg
   width="161.86922mm"
   height="239.34332mm"
   viewBox="0 0 161.86922 239.34332"
   version="1.1"
   id="svg5"
   xml:space="preserve"
   inkscape:version="1.3.2 (091e20e, 2023-11-25, custom)"
   sodipodi:docname="frontHeadV3.1.svg"
   inkscape:export-filename="frontHeadV2.4.svg"
   inkscape:export-xdpi="96"
   inkscape:export-ydpi="96"
   xmlns:inkscape="http://www.inkscape.org/namespaces/inkscape"
   xmlns:sodipodi="http://sodipodi.sourceforge.net/DTD/sodipodi-0.dtd"
   xmlns="http://www.w3.org/2000/svg"
   xmlns:svg="http://www.w3.org/2000/svg"><sodipodi:namedview
     id="namedview7"
     pagecolor="#ffffff"
     bordercolor="#999999"
     borderopacity="1"
     inkscape:showpageshadow="0"
     inkscape:pageopacity="0"
     inkscape:pagecheckerboard="0"
     inkscape:deskcolor="#d1d1d1"
     inkscape:document-units="mm"
     showgrid="false"
     inkscape:zoom="4.2440236"
     inkscape:cx="221.48793"
     inkscape:cy="455.22838"
     inkscape:window-width="3840"
     inkscape:window-height="2054"
     inkscape:window-x="-11"
     inkscape:window-y="-11"
     inkscape:window-maximized="1"
     inkscape:current-layer="layer1"
     showguides="true" /><defs
     id="defs2"><inkscape:path-effect
       effect="spiro"
       id="path-effect3596"
       is_visible="true"
       lpeversion="1" /><inkscape:path-effect
       effect="spiro"
       id="path-effect3596-2"
       is_visible="true"
       lpeversion="1" /></defs><g
     inkscape:label="Layer 1"
     inkscape:groupmode="layer"
     id="layer1"
     style="display:inline"
     transform="translate(-24.724075,-9.1681759)"><path
       style="display:inline;opacity:1;fill:#ffe6d5;fill-opacity:1;fill-rule:evenodd;stroke:#000000;stroke-width:0.264583;stroke-linejoin:bevel;stroke-dasharray:3.175, 0.264583;stroke-dashoffset:0;stroke-opacity:1"
       d="m 42.517631,148.5 c 0,0 38.56524,61.97476 63.605479,61.86337 25.04024,-0.11139 62.872,-61.86337 62.872,-61.86337 l -1.60532,7.54345 -2.4937,14.30762 -1.80793,12.96725 -1.71442,5.04975 -2.68073,4.23929 -3.53452,3.68867 -4.32065,4.50938 -1.76735,1.84423 -6.088,6.35362 -7.85497,6.20329 -7.01286,4.80431 -3.2425,1.804 -7.10054,3.04842 -5.18108,0.97255 -5.48601,0.46769 -4.55833,0.24803 -4.450168,-1.08965 -5.735519,-1.83911 -5.735312,-1.83891 -9.133292,-5.20589 -13.933516,-12.09435 -6.836791,-7.66671 -4.509701,-5.30056 -2.400189,-3.70938 -2.088475,-4.86273 -4.519838,-25.87216 z"
       id="jaw"
       sodipodi:nodetypes="czcccccccccccccccccccccccccccc"
       inkscape:label="jaw" /><path
       style="display:inline;opacity:1;fill:#f4e3d7;fill-opacity:1;fill-rule:evenodd;stroke:#000000;stroke-width:0.264583;stroke-opacity:1"
       d="m 39.253916,105.88885 c -0.568844,-1.28862 -1.719879,-2.30656 -3.068377,-2.7136 -1.348498,-0.40703 -2.870512,-0.19591 -4.057317,0.56278 -0.988811,0.63212 -1.72451,1.60686 -2.226327,2.66776 -0.501816,1.0609 -0.785098,2.21101 -1.015486,3.36177 -1.648712,8.23511 -0.722706,16.75247 0.49874,25.06171 0.545604,3.71163 1.149182,7.41541 1.870278,11.09697 0.282945,1.44458 0.586519,2.89429 1.130903,4.26195 0.544384,1.36767 1.345771,2.66096 2.484965,3.59322 0.814756,0.66675 1.806739,1.13715 2.854104,1.24398 1.047366,0.10682 2.135254,-0.16839 2.984186,-0.79105 0.848931,-0.62265 1.431549,-1.57252 1.689178,-2.59332 0.257629,-1.02079 0.19927,-2.0913 0.118868,-3.14102 l -3.263715,-42.61115"
       id="rightEar"
       sodipodi:nodetypes="cssssssc"
       inkscape:original-d="m 39.253916,105.88885 c -1.963526,-0.71668 -5.161639,-1.43362 -7.125694,-2.15082 -1.964055,-0.7172 -1.371272,3.7439 -3.241813,6.02953 -1.870541,2.28563 0.332759,16.70807 0.49874,25.06171 0.165983,8.35364 1.247116,7.39825 1.870278,11.09697 0.62316,3.69873 2.410844,5.23705 3.615868,7.85517 1.205026,2.61812 7.94585,-1.37095 7.646336,-5.28141 l -3.263715,-42.61115"
       inkscape:path-effect="#path-effect3596" /><path
       id="neck"
       style="display:inline;opacity:1;fill:#f4e3d7;fill-opacity:1;fill-rule:evenodd;stroke:#000000;stroke-width:0.264583;stroke-opacity:1"
       d="m 155.15849,196.29603 -12.176,12.70723 -7.85497,6.20329 -7.01286,4.80431 -3.2425,1.804 -7.10054,3.04842 -5.18108,0.97255 -5.48597,0.46767 c 0,0 -1.82697,0.13027 -4.55837,0.24805 -2.18225,-0.53152 -2.993703,-0.62277 -4.450379,-1.08986 l -11.470618,-3.67781 -9.133294,-5.20589 -13.933515,-12.09435 -6.836792,-7.66671 c 0.03213,1.98658 0.15884,3.9719 0.379822,5.9464 1.659361,6.71539 1.398767,13.10497 1.403662,19.31252 0.03226,4.07837 -1.032231,8.18013 -3.191536,11.64012 13.925879,7.77411 31.435545,12.66742 47.30241,14.28285 1.47283,0.14995 2.94864,0.27175 4.42609,0.36587 v 0.008 c 0.0208,-0.001 0.0417,-0.003 0.0625,-0.004 0.0208,0.001 0.0417,0.003 0.0625,0.004 v -0.008 c 1.47745,-0.0941 2.95326,-0.21592 4.42609,-0.36587 15.86686,-1.61543 31.3928,-6.50874 45.31868,-14.28285 -2.49216,-2.86989 -1.52571,-6.09141 -2.07288,-9.85276 -0.2501,-6.51561 -1.56687,-13.21911 -0.67682,-19.02713 0.15037,-0.86765 0.30071,-1.7354 0.45165,-2.60295 z"
       sodipodi:nodetypes="cccccccccccccccccscccccsccccc"
       inkscape:label="neck" /><path
       style="display:inline;opacity:1;fill:#ffe6d5;fill-opacity:1;fill-rule:evenodd;stroke:#000000;stroke-width:0.264583;stroke-dasharray:3.175, 0.264583;stroke-dashoffset:0;stroke-opacity:1"
       d="m 36.087865,43.730066 c 10.528214,-2.814294 17.26373,-4.566118 23.314471,-6.050293 3.8372,-0.94122 7.254816,-1.909749 11.907371,-2.588974 3.18795,-0.465408 8.532404,-1.391275 13.697445,-1.737553 9.959583,-0.667716 20.149328,-0.544368 20.149328,-0.544368 0,0 0.26068,-11.457202 -0.15648,-23.505546 0,0 -56.130423,0.975823 -68.912135,34.426734 z"
       id="rightParietal"
       sodipodi:nodetypes="cssscsc" /><path
       style="display:inline;opacity:1;fill:#ffe6d5;fill-opacity:1;fill-rule:evenodd;stroke:#000000;stroke-width:0.264583;stroke-dasharray:3.175, 0.264583;stroke-dashoffset:0;stroke-opacity:1"
       d="m 173.53185,42.964466 c -10.03543,-3.083819 -15.29768,-4.79323 -21.34842,-6.277405 -3.8372,-0.94122 -7.96117,-2.033381 -12.61372,-2.712606 -3.18795,-0.465408 -8.94379,-1.174735 -14.11938,-1.278442 -10.17778,-0.20394 -20.29385,0.112865 -20.29385,0.112865 0,0 0.21274,-11.254589 -0.15648,-23.505546 0,0 55.31374,-0.9742858 68.53185,33.661134 z"
       id="leftParietal"
       sodipodi:nodetypes="cssscsc"
       inkscape:label="leftParietal" /><path
       style="display:inline;opacity:1;fill:#ffe6d5;fill-opacity:1;fill-rule:evenodd;stroke:#000000;stroke-width:0.286123;stroke-dasharray:3.43348, 0.286123;stroke-dashoffset:0;stroke-opacity:1"
       d="m 33.068612,63.774423 c 0,0 31.085988,12.000413 74.066208,12.821632 38.04294,1.26205 70.72938,-12.720971 70.72938,-12.720971 0,0 -0.22635,-4.993811 -1.11889,-10.282268 -0.78732,-4.665003 -2.92287,-9.425067 -3.21346,-10.62835 C 137.274,31.46078 132.30076,32.485604 105.15648,32.808878 77.773967,33.134989 75.215083,33.248274 36.087865,43.730066 c 0,0 -1.586316,2.205043 -2.522103,8.518353 -0.935787,6.31331 -0.49715,11.526004 -0.49715,11.526004 z"
       id="frontal"
       sodipodi:nodetypes="cccscsczc" /><path
       style="display:inline;opacity:1;fill:#ffe6d5;fill-opacity:1;fill-rule:evenodd;stroke:#000000;stroke-width:0.241471;stroke-dasharray:2.89765, 0.241471;stroke-dashoffset:0;stroke-opacity:1"
       d="m 33.068613,63.774423 c 0,0 12.969943,19.194231 14.081004,30.474715 1.075352,10.917922 -7.049612,33.100432 -7.049612,33.100432 l -2.222484,-19.44325 -0.316123,-2.76558 -1.768408,-8.839718 -0.84998,-4.03402 -0.997482,-9.133187 -0.815105,-15.346891 -0.06181,-4.012501"
       id="rightTemporal"
       sodipodi:nodetypes="cscccccccc" /><path
       style="display:inline;opacity:1;fill:#ffe6d5;fill-opacity:1;fill-rule:evenodd;stroke:#000000;stroke-width:0.250113;stroke-dasharray:3.00136, 0.250113;stroke-dashoffset:0;stroke-opacity:1"
       d="m 177.8642,63.875084 c 0,0 -12.61226,19.081516 -13.6977,30.693469 -1.08544,11.611957 8.04942,36.569037 8.04942,36.569037 l 1.06525,-7.66813 1.30919,-14.52582 3.12362,-22.138992 0.16791,-4.809569 -0.0473,-12.045618 0.0296,-6.074377"
       id="leftTemporal"
       sodipodi:nodetypes="czccccccc" /><path
       style="display:inline;opacity:1;fill:#f4e3d7;fill-opacity:1;fill-rule:evenodd;stroke:#000000;stroke-width:0.264583;stroke-opacity:1"
       d="m 174.74569,107.84269 c 0.14091,-0.80098 0.5342,-1.55565 1.11003,-2.12997 0.57582,-0.57433 1.33151,-0.96565 2.13285,-1.10448 1.07689,-0.18656 2.20911,0.0863 3.13789,0.66241 0.92878,0.57608 1.66034,1.44026 2.16682,2.40875 1.01295,1.937 1.13159,4.20729 1.11658,6.39311 -0.0294,4.27619 -0.48838,8.53635 -0.93513,12.78924 -0.73882,7.03329 -1.44839,14.08857 -2.96976,20.99497 -0.58853,2.67167 -1.3258,5.37895 -2.89045,7.62306 -0.76706,1.10016 -1.75363,2.08469 -2.97966,2.62836 -0.61302,0.27183 -1.27877,0.42948 -1.94929,0.43899 -0.67051,0.01 -1.34385,-0.13063 -1.95043,-0.41654 -0.60658,-0.2859 -1.14354,-0.71678 -1.55791,-1.24402 -0.41436,-0.52724 -0.7049,-1.14789 -0.86821,-1.79829 -0.32661,-1.30078 -0.11669,-2.66894 0.13246,-3.98676 l 3.77444,-19.96393 2.52977,-23.2949"
       id="leftEar"
       sodipodi:nodetypes="csssssscc"
       inkscape:label="leftEar"
       inkscape:original-d="m 174.74569,107.84269 c 1.96353,-0.71668 1.27883,-2.51725 3.24288,-3.23445 1.96406,-0.7172 6.17165,6.24351 6.42129,9.46427 0.22824,2.94465 -0.76915,4.4356 -0.93513,12.78924 -0.16599,8.35364 -2.3466,17.29625 -2.96976,20.99497 -0.62316,3.69873 -1.68543,5.00494 -2.89045,7.62306 -1.20503,2.61812 -9.90162,-0.52462 -9.17304,-4.37826 l 3.77444,-19.96393 2.52977,-23.2949"
       inkscape:path-effect="#path-effect3596-2" /><path
       d="m 89.664297,88.430005 -28.301115,5.642549 -8.022766,3.086117 15.957682,-0.264584 14.6358,0.617017 10.138916,3.703136 C 92.603387,96.952898 92.349402,92.597829 89.664297,88.430005 Z"
       style="display:inline;opacity:1;fill:#2b1100;stroke:#000000;stroke-width:0.265;stroke-dasharray:3.18, 0.265"
       id="rightEyebrow"
       inkscape:label="rightEyebrow" /><path
       id="face"
       style="display:inline;opacity:1;fill:#ffe6d5;stroke:#000000;stroke-width:0.265;stroke-dasharray:3.18, 0.265"
       d="m 33.635753,64.632961 c 0.839586,1.169801 1.578048,2.426982 2.376825,3.776277 1.411559,2.384405 2.999406,5.00304 4.3451,7.609281 3.049013,5.905105 5.841371,11.895692 6.531112,16.438072 0.784254,5.164809 0.09031,9.835279 -0.973468,14.676959 -0.75659,3.44353 -1.64006,6.84858 -2.64375,10.42689 -0.84971,3.02934 -1.77629,5.72009 -2.894471,9.01361 l -0.309166,0.49496 1.427602,11.07979 1.201994,10.50478 0.82734,1.27693 c 0.455121,0.70231 0.828361,1.34727 0.82889,1.43298 5.87e-4,0.0857 0.04989,0.15555 0.109554,0.15555 0.147873,0 1.851438,2.63181 1.77922,2.74867 -0.03168,0.0513 0.02331,0.12421 0.122473,0.16226 0.211521,0.0812 1.813326,2.438 1.813326,2.66806 0,0.0863 0.05073,0.15658 0.112654,0.15658 0.06193,0 0.522671,0.6033 1.02371,1.34048 0.501039,0.7372 1.346951,1.95075 1.879989,2.69648 0.533038,0.74572 0.938869,1.40498 0.901754,1.46503 -0.03711,0.0601 0.0058,0.11106 0.0956,0.11369 0.08977,0.003 0.499597,0.48884 0.911056,1.08055 1.238837,1.78156 2.638472,3.67103 5.380033,7.26519 1.018622,1.33539 1.837706,2.47163 1.820561,2.52491 -0.01714,0.0533 0.02247,0.0971 0.08785,0.0971 0.157276,0 2.072086,2.47384 2.031917,2.62516 -0.01714,0.0646 0.03882,0.12054 0.12454,0.12403 0.08572,0.004 0.577083,0.54088 1.091406,1.19424 0.514326,0.65336 0.992245,1.25394 1.062468,1.33429 0.07022,0.0804 0.835974,0.98724 1.701188,2.01589 3.313997,3.94001 5.894725,6.82816 8.385535,9.38289 0.752181,0.77149 1.331761,1.4025 1.287776,1.4025 -0.04398,0 0.464164,0.5171 1.12913,1.14877 0.664969,0.63166 1.226634,1.21702 1.247986,1.30121 0.02136,0.0842 0.116106,0.17089 0.21084,0.19224 0.225385,0.0508 2.306319,2.08648 2.306319,2.25619 0,0.0718 0.0349,0.0953 0.07803,0.0522 0.09396,-0.094 2.491686,2.04753 2.446879,2.1854 -0.01714,0.0527 0.03882,0.0971 0.12454,0.0987 0.08572,0.002 0.66077,0.42518 1.277958,0.94155 1.599929,1.33857 3.896434,3.08944 5.454964,4.15892 0.7372,0.50586 1.340487,0.95794 1.340487,1.00459 0,0.0466 0.06982,0.086 0.155546,0.0873 0.18859,0.003 2.736517,1.52662 2.865975,1.71411 0.05038,0.073 0.09248,0.0902 0.09353,0.0382 0.0011,-0.052 0.689044,0.2533 1.529106,0.67799 0.840065,0.4247 1.583518,0.78595 1.652096,0.80305 0.160343,0.04 2.558903,0.90235 2.805513,1.00873 0.10287,0.0444 0.27127,0.094 0.37414,0.11007 0.10287,0.0161 0.71054,0.19943 1.37149,0.28732 0.84494,0.11235 1.2227,0.22136 1.77792,0.28454 0.51756,0.0589 1.21909,0.075 1.80429,0.0952 1.50946,-0.0172 2.94593,-0.21548 4.32376,-0.59686 0.63365,-0.172 1.26314,-0.32832 1.82441,-0.52244 0.6321,-0.21862 1.19285,-0.47491 1.86529,-0.65945 0.0999,-0.0274 1.9404,-0.91681 1.97469,-0.95976 0.12643,-0.15831 1.17129,-0.634 1.237,-0.56831 0.0374,0.0374 0.12981,-0.0141 0.20516,-0.11473 0.0754,-0.10066 0.72652,-0.53453 1.44745,-0.96428 0.72094,-0.42974 1.92287,-1.20237 2.67064,-1.71669 0.74776,-0.51433 1.40635,-0.92097 1.46348,-0.90382 0.0571,0.0171 0.10387,-0.0217 0.10387,-0.0863 0,-0.14714 2.50723,-2.07598 2.64325,-2.03347 0.0549,0.0171 0.0997,-0.0202 0.0997,-0.0827 0,-0.14685 2.31673,-2.13062 2.48822,-2.13062 0.0716,0 0.13023,-0.0475 0.13023,-0.10542 0,-0.0579 0.74347,-0.78277 1.65209,-1.61127 0.90864,-0.82851 2.52114,-2.38033 3.58377,-3.44837 1.06261,-1.06803 2.00273,-1.942 2.08876,-1.942 0.086,0 0.14219,-0.0443 0.12505,-0.0987 -0.0496,-0.15723 2.06476,-2.39469 2.26291,-2.39469 0.0982,0 0.14265,-0.0366 0.0982,-0.0811 -0.0808,-0.0808 0.0419,-0.22981 1.73116,-2.10116 0.49521,-0.54861 1.27708,-1.43224 1.73788,-1.96371 0.46081,-0.53147 0.88753,-0.96635 0.94826,-0.96635 0.0607,0 0.11059,-0.0615 0.11059,-0.13694 0,-0.17611 1.97942,-2.4815 2.13062,-2.4815 0.0627,0 0.11369,-0.0665 0.11369,-0.1478 0,-0.0813 0.21534,-0.40374 0.47852,-0.71675 0.26317,-0.31301 1.19165,-1.4531 2.06344,-2.53318 0.8718,-1.08006 1.63865,-1.9637 1.70377,-1.9637 0.0651,0 0.11834,-0.0759 0.11834,-0.16847 0,-0.20804 1.84065,-2.57452 2.00246,-2.57452 0.0644,0 0.10291,-0.0491 0.0858,-0.10903 -0.0439,-0.15343 1.81014,-2.62123 1.97455,-2.62827 0.0743,-0.003 0.13488,-0.0791 0.13488,-0.16846 0,-0.20169 1.7764,-2.58021 1.92701,-2.58021 0.0602,0 0.10956,-0.0739 0.10956,-0.16381 0,-0.21099 1.72478,-2.57969 1.87843,-2.57969 0.0641,0 0.11628,-0.0742 0.11628,-0.16485 0,-0.19153 1.69863,-2.62016 1.87585,-2.682 0.0655,-0.0229 0.11937,-0.0962 0.11937,-0.1633 0,-0.13729 3.44847,-5.21178 3.67368,-5.40587 0.0796,-0.0686 0.18131,-0.22187 0.22583,-0.34055 0.11439,-0.30492 1.60704,-2.51861 1.73219,-2.56883 0.057,-0.0229 0.10387,-0.0943 0.10387,-0.15917 0,-0.16046 1.62198,-2.65627 1.7601,-2.70836 0.0606,-0.0229 0.11007,-0.10305 0.11007,-0.17828 0,-0.0752 0.18652,-0.51947 0.50901,-0.91829 l 1.09606,-1.35548 1.62367,-8.91521 1.60994,-8.66106 c -1.40872,-4.04498 -2.84355,-8.14519 -4.10635,-12.68675 -2.29988,-8.27132 -3.83272,-16.55784 -4.0045,-20.276646 -0.0282,-0.609577 -0.0637,-0.921415 -0.0286,-1.631338 0.088,-1.781239 -0.12646,-0.545945 0.17134,-2.521811 0.22763,-1.51032 0.9558,-4.554246 1.49176,-6.145215 1.6445,-4.88159 4.4677,-10.633485 9.44656,-19.81492 0.37274,-0.687371 0.78917,-1.256916 0.87901,-1.291394 0.0898,-0.03448 0.13495,-0.108701 0.10025,-0.164848 -0.0347,-0.05614 2.18561,-2.951673 1.69884,-2.729584 -43.76517,16.989477 -90.496849,16.930057 -144.631268,-0.03841 z m 56.016016,24.010856 c 2.685102,4.167819 2.939091,8.522897 4.408517,12.784233 l 1.3224,10.05107 -0.08785,10.09499 -1.322917,10.09499 -3.217892,11.19673 -1.190108,1.54616 c 0,0 -1.255402,2.91269 -1.108459,4.28604 0.146942,1.37337 1.990059,3.95428 1.990059,3.95428 l -2.144445,8.69004 c 0,0 -24.608189,-0.89806 -29.324825,-7.73027 -4.716636,-6.83223 2.021972,-19.16589 2.021972,-19.16589 l -7.670333,-37.073707 8.022766,-3.086117 z m 31.468361,0 28.30111,5.642549 8.02328,3.086117 -7.67033,37.073707 c 0,0 6.84975,12.39389 2.04703,19.16589 -3.92314,5.53177 -29.32482,7.73027 -29.32482,7.73027 l -2.1695,-8.69004 c 0,0 1.84312,-2.58091 1.99006,-3.95428 0.14695,-1.37335 -1.10846,-4.28604 -1.10846,-4.28604 l -1.19011,-1.54616 -3.21841,-11.19673 -1.3224,-10.09499 -0.0878,-10.09499 1.3224,-10.05107 c 1.46943,-4.261336 1.7229,-8.616414 4.408,-12.784233 z"
       inkscape:label="face"
       sodipodi:nodetypes="csssssccccccsscssssscssssscscssssssscscssscscssssssccssssssssscsssssscscsssssssssssccssssscssssscsscccssssssssccccccccccsccsccccccccsccscccccccc" /><path
       d="m 149.78672,134.23238 -23.67245,5.24568 -4.89324,4.72012 c 0,0 1.25541,2.91268 1.10846,4.28604 -0.14694,1.37337 -1.99006,3.95428 -1.99006,3.95428 l 2.15697,8.90385 c 0,0 24.60818,-0.89805 29.32482,-7.73027 4.71664,-6.83223 -2.0345,-19.3797 -2.0345,-19.3797 z"
       style="display:inline;opacity:1;fill:#ffe6d5;stroke:#000000;stroke-width:0.265;stroke-dasharray:3.18, 0.265"
       id="leftInfraorbital"
       sodipodi:insensitive="true"
       inkscape:label="leftInfraorbital" /><path
       d="m 157.45705,97.158669 -15.9582,-0.264584 -14.63527,0.617017 -10.13892,3.703138 -1.3224,10.05107 0.0879,10.09499 1.3224,10.09499 3.21841,11.19673 1.19011,1.54616 4.89324,-4.72012 23.67245,-5.24568 z"
       style="display:inline;opacity:1;fill:#ffe6d5;stroke:#000000;stroke-width:0.265;stroke-dasharray:3.18, 0.265"
       id="leftOrbital"
       inkscape:label="leftOrbital" /><path
       d="m 121.13266,88.430003 c -2.6851,4.167824 -2.93857,8.522893 -4.408,12.784237 l 10.13892,-3.703138 14.63527,-0.617017 15.9582,0.264584 -8.02328,-3.086117 z"
       style="display:inline;opacity:1;fill:#28170b;stroke:#000000;stroke-width:0.265;stroke-dasharray:3.18, 0.265"
       id="leftEyebrow"
       inkscape:label="leftEyebrow" /><path
       d="m 89.576448,144.19818 -4.893241,-4.72012 -23.672457,-5.24568 c 0,0 -6.751142,12.54747 -2.034501,19.3797 4.716641,6.83222 29.324825,7.73027 29.324825,7.73027 l 2.156974,-8.90385 c 0,0 -1.843117,-2.58091 -1.990059,-3.95428 -0.146943,-1.37336 1.108459,-4.28604 1.108459,-4.28604 z"
       style="display:inline;opacity:1;fill:#ffe6d5;stroke:#000000;stroke-width:0.265;stroke-dasharray:3.18, 0.265"
       id="rightInfraorbital"
       inkscape:label="rightInfraorbital" /><path
       d="m 94.072815,101.21424 -10.138916,-3.703138 -14.6358,-0.617017 -15.957682,0.264584 7.670333,37.073711 23.672457,5.24568 4.893241,4.72012 1.190108,-1.54616 3.217892,-11.19673 1.322917,-10.09499 0.08785,-10.09499 z"
       style="display:inline;opacity:1;fill:#ffe6d5;stroke:#000000;stroke-width:0.265;stroke-dasharray:3.18, 0.265"
       id="rightOrbital"
       inkscape:label="rightOrbital" /><path
       style="display:inline;opacity:1;fill:#000000;fill-rule:nonzero;stroke:#000000;stroke-width:0.285999;stroke-linecap:butt;stroke-linejoin:miter;stroke-dasharray:none;stroke-dashoffset:0;stroke-opacity:1;paint-order:normal"
       d="m 105.42908,94.83845 h 0.43395 l -0.0492,45.87247 h -0.13877"
       id="noseBridge"
       sodipodi:nodetypes="cccc" /><path
       style="fill:#f4e3d7;stroke:#000000;stroke-width:0.264999;stroke-dasharray:3.18, 0.264999"
       d="m 39.46981,121.83635 c 0,0 -2.534153,-14.24559 -5.408613,-13.46166 -2.87446,0.78394 -2.682029,8.84256 -2.737449,12.94871 -0.05542,4.10615 2.924821,21.40301 3.31809,22.06039 0.393269,0.65738 0.730946,2.47048 3.597951,2.2364 2.867005,-0.23408 2.541947,-13.01129 2.541947,-13.01129"
       id="innerRightEar"
       sodipodi:nodetypes="czzzzc"
       inkscape:label="innerRightEar" /><path
       style="fill:#f4e3d7;stroke:#000000;stroke-width:0.264999;stroke-dasharray:3.18, 0.264999"
       d="m 173.4808,119.49014 c 1.12428,-3.86288 4.25488,-11.75485 6.58315,-8.51381 0.94251,1.31201 1.1212,5.54711 0.99873,8.92072 -0.0992,2.73114 -0.40289,8.46761 -0.88291,11.53178 -0.66217,4.22686 -1.5495,17.70717 -6.43709,18.24705 -4.88759,0.53989 -3.94854,-5.41968 -3.94854,-5.41968 l 3.68666,-24.76606"
       id="innerLeftEar"
       sodipodi:nodetypes="cssszcc"
       inkscape:label="innerLeftEar" /></g></svg>
